<svg width="120" height="120" viewBox="0 0 120 120" fill="none" xmlns="http://www.w3.org/2000/svg">
<circle cx="60" cy="60" r="58.5" stroke="#101B79" stroke-width="3"/>
<path d="M86.9796 50.12L81.6246 44.3825C79.7886 44.0765 79.8396 45.53 80.0946 46.295L86.9796 53.18C86.5971 58.9176 86.5972 71.9228 86.9796 73.8351C87.3621 75.7478 89.6571 74.9828 89.6571 73.8351V62.3601H90.8046L90.8046 73.4528C90.8046 74.9828 93.0996 75.7478 93.8646 73.8353L93.8646 70.3926H102.28V66.5676V61.5951H99.2197H97.6896C98.3016 60.0651 96.9246 59.6826 96.1596 59.6826V52.415C96.1596 50.579 94.6296 50.12 93.8646 50.12H86.9796Z" fill="#101B79"/>
<circle cx="90.8047" cy="46.6775" r="2.67751" fill="#101B79"/>
<path d="M35.9776 47.4424C31.3876 46.5244 22.59 51.1399 18.765 53.5624C18.153 56.3164 19.785 61.085 20.6775 63.1251C25.5735 60.3711 29.0925 62.9976 30.24 64.6551L57.7802 64.2726C62.6762 58.7646 67.9802 62.2326 70.0202 64.6551H78.8177C79.8378 65.1651 79.9652 63.1251 78.8177 61.9776C75.8747 59.0345 67.3427 55.475 63.1352 54.3275C55.4852 49.4315 45.6676 47.1875 41.7151 46.6775V44H39.4201L35.9776 47.4424Z" fill="#101B79"/>
<path d="M56.6326 66.5676H31.3875V71.1576H56.6326V66.5676Z" fill="#101B79"/>
<path d="M70.7852 71.1576V66.5676H78.0527C78.9707 68.4036 76.9052 70.1376 75.7577 70.7751L70.7852 71.1576Z" fill="#101B79"/>
<circle cx="24.5025" cy="68.4801" r="6.50253" fill="#101B79"/>
<circle cx="63.9002" cy="68.4801" r="6.50253" fill="#101B79"/>
<circle cx="63.9002" cy="68.4801" r="3.44251" fill="white"/>
<circle cx="24.5026" cy="68.4801" r="3.44251" fill="white"/>
<rect x="29.4751" y="58.1523" width="2.29501" height="2.29501" fill="white"/>
<rect x="47.0701" y="58.1523" width="2.29501" height="2.29501" fill="white"/>
<rect x="34.0651" y="58.1523" width="2.29501" height="2.29501" fill="white"/>
<rect x="51.6602" y="58.1523" width="2.29501" height="2.29501" fill="white"/>
<rect x="36.3601" y="60.4478" width="2.29501" height="2.29501" fill="white"/>
<rect x="53.9552" y="60.4478" width="2.29501" height="2.29501" fill="white"/>
<rect x="31.77" y="60.4478" width="2.29501" height="2.29501" fill="white"/>
<rect x="49.3651" y="60.4478" width="2.29501" height="2.29501" fill="white"/>
<rect x="27.1801" y="60.4478" width="2.29501" height="2.29501" fill="white"/>
<rect x="44.7751" y="60.4478" width="2.29501" height="2.29501" fill="white"/>
<path d="M68.4903 60.5691L62.3702 56.7441C63.5942 54.9081 69.5103 58.5291 72.3153 60.5691H68.4903Z" fill="white"/>
<path d="M37.8901 49.419V56.6865H24.1201L21.8251 54.009C27.0271 50.337 34.7026 49.419 37.8901 49.419Z" fill="white"/>
<path d="M40.9502 56.6865V49.419C45.5402 48.807 54.3377 52.734 58.1627 54.774V56.6865H40.9502Z" fill="white"/>
</svg>
