<svg width="111" height="112" viewBox="0 0 111 112" fill="none" xmlns="http://www.w3.org/2000/svg">
<path d="M82.8041 31.5H72.4855V42H65.6064V31.5H55.2878V24.5H65.6064V14H72.4855V24.5H82.8041V31.5Z" fill="#101B79"/>
<path d="M85.7 48.375H45.7902V69.5776H41.5394V62.3705C41.5345 58.2872 39.7618 54.3723 36.6101 51.4849C33.4584 48.5975 29.1852 46.9734 24.728 46.9688H15.0904V35.7188H8.95044V96.1875H15.0904V87.7952L94.9099 88.3802V96.1875H101.05V62.4375C101.045 58.7092 99.4266 55.1348 96.5489 52.4985C93.6712 49.8622 89.7696 48.3792 85.7 48.375ZM15.0904 52.5938H24.728C27.5573 52.5967 30.2698 53.6276 32.2704 55.4604C34.2709 57.2932 35.3963 59.7782 35.3995 62.3702V69.5772H15.0904V52.5938ZM94.9099 82.755L15.0904 82.17V75.2026H94.9099V82.755ZM94.9099 69.5776H51.9302V54H85.7C88.1418 54.0026 90.4827 54.8923 92.2093 56.4741C93.9359 58.0559 94.9071 60.2005 94.9099 62.4375V69.5776Z" fill="#101B79"/>
</svg>
