<svg width="90" height="90" viewBox="0 0 90 90" fill="none" xmlns="http://www.w3.org/2000/svg">
<path d="M31.425 84.575C32.0172 84.6007 32.6031 84.4444 33.1037 84.127C33.6043 83.8097 33.9956 83.3465 34.225 82.8L35.475 78.6C36.075 78.375 36.675 78.15 37.25 77.875L40.85 79.825C41.4014 80.1178 42.0325 80.2248 42.6496 80.1302C43.2666 80.0357 43.8367 79.7445 44.275 79.3L47.8 75.75C48.2405 75.3087 48.527 74.7372 48.617 74.1202C48.7071 73.5033 48.5959 72.8738 48.3 72.325L46.4 68.7C46.6998 68.0811 46.9669 67.4469 47.2 66.8L51.15 65.6C51.7226 65.3997 52.2172 65.0234 52.563 64.5249C52.9087 64.0265 53.088 63.4315 53.075 62.825L53.075 57.825C53.0755 57.2039 52.8766 56.599 52.5076 56.0995C52.1385 55.5999 51.6188 55.232 51.025 55.05L47.175 53.875C46.9431 53.2194 46.676 52.5768 46.375 51.95L48.275 48.4C48.565 47.854 48.6728 47.2296 48.5829 46.6179C48.493 46.0063 48.2099 45.4394 47.775 45L44.275 41.375C43.8349 40.9248 43.2602 40.6302 42.6378 40.5355C42.0154 40.4408 41.3791 40.5511 40.825 40.85L37.5 42.7C36.8974 42.4094 36.2798 42.1507 35.65 41.925L34.475 37.975C34.3011 37.3744 33.936 36.8469 33.4352 36.4725C32.9345 36.098 32.3253 35.897 31.7 35.9L26.7 35.9C26.079 35.9024 25.4755 36.1059 24.9798 36.48C24.4841 36.854 24.1228 37.3785 23.95 37.975L22.775 41.95C22.162 42.1769 21.5612 42.4356 20.975 42.725L17.325 40.775C16.7737 40.4822 16.1426 40.3751 15.5255 40.4697C14.9084 40.5643 14.3384 40.8555 13.9 41.3L10.4 44.85C9.95554 45.2883 9.66436 45.8584 9.56977 46.4754C9.47518 47.0925 9.58224 47.7236 9.87503 48.275L11.825 51.975C11.55 52.55 11.325 53.15 11.1 53.775L7.05003 55C6.46088 55.1864 5.94668 55.5562 5.58242 56.0554C5.21816 56.5545 5.02286 57.157 5.02503 57.775L5.02503 62.775C5.02452 63.3961 5.22343 64.0009 5.59248 64.5005C5.96153 65 6.48122 65.3679 7.07503 65.55L11.025 66.725C11.225 67.325 11.475 67.9 11.75 68.475L9.77503 72.225C9.48508 72.771 9.37721 73.3954 9.46715 74.007C9.5571 74.6187 9.84017 75.1856 10.275 75.625L13.775 79.175C14.2152 79.6251 14.7898 79.9198 15.4122 80.0145C16.0346 80.1092 16.6709 79.9988 17.225 79.7L20.85 77.725C21.4167 77.9916 21.9917 78.2333 22.575 78.45L23.75 82.5C23.924 83.1006 24.289 83.628 24.7898 84.0025C25.2906 84.3769 25.8998 84.5779 26.525 84.575L31.425 84.575ZM27.35 80.575L25.8 75.3L24.75 75C23.7163 74.6915 22.7189 74.2724 21.775 73.75L20.825 73.225L16.05 75.725L13.55 73.225L16.05 68.225L15.55 67.3C15.0382 66.3454 14.6276 65.34 14.325 64.3L14.025 63.25L8.80003 61.675L8.80003 58.55L14 56.975L14.3 55.925C14.6013 54.8765 15.0119 53.8626 15.525 52.9L16.025 51.975L13.525 47.125L16.025 44.625L20.875 47.125L21.825 46.575C22.8367 46.0734 23.9018 45.6876 25 45.425L25.925 45L27.5 40L30.775 40L32.3 45L33.325 45.325C34.3967 45.6493 35.4283 46.0938 36.4 46.65L37.5 47.25L42.125 44.75L44.475 47.25L41.975 51.975L42.5 52.925C43.0473 53.9243 43.4832 54.9806 43.8 56.075L44.1 57.1L49.1 58.675L49.1 62.125L44.1 63.675L43.8 64.7C43.4768 65.7601 43.041 66.7826 42.5 67.75L41.975 68.7L44.475 73.5L41.975 76L37.25 73.5L36.3 74.025C35.3396 74.5493 34.3254 74.9684 33.275 75.275L32.225 75.575L30.7 80.725L27.35 80.575Z" fill="#101B79"/>
<path d="M39.1251 60.3C39.0857 58.3312 38.4659 56.4178 37.3435 54.7998C36.221 53.1818 34.6458 51.9313 32.8154 51.205C30.985 50.4787 28.9809 50.309 27.0545 50.7171C25.128 51.1253 23.365 52.0931 21.9864 53.4993C20.6078 54.9054 19.6751 56.6873 19.3051 58.6215C18.9352 60.5556 19.1446 62.5559 19.907 64.3716C20.6694 66.1872 21.9509 67.7373 23.5908 68.8276C25.2306 69.9178 27.1559 70.4996 29.1251 70.5C31.7997 70.4605 34.3505 69.3668 36.2231 67.4568C38.0957 65.5468 39.1386 62.9748 39.1251 60.3V60.3ZM22.9751 60.3C22.9997 59.1041 23.3768 57.9421 24.0591 56.9596C24.7415 55.9772 25.6986 55.218 26.8106 54.7773C27.9226 54.3366 29.14 54.234 30.3101 54.4823C31.4801 54.7307 32.5509 55.3189 33.388 56.1733C34.2252 57.0276 34.7915 58.1101 35.0159 59.285C35.2404 60.4599 35.113 61.6749 34.6497 62.7777C34.1865 63.8805 33.408 64.822 32.4119 65.4842C31.4157 66.1464 30.2463 66.4997 29.0501 66.5C28.2425 66.4934 27.444 66.3279 26.7004 66.0127C25.9567 65.6976 25.2824 65.2391 24.716 64.6634C24.1495 64.0877 23.7021 63.406 23.3991 62.6573C23.0961 61.9086 22.9435 61.1076 22.9501 60.3L22.9751 60.3Z" fill="#101B79"/>
<path d="M12.5 36.225L12.5 15L77.5 15L77.5 57.7C79.2328 57.9449 80.9185 58.4507 82.5 59.2L82.5 15C82.5 13.6739 81.9732 12.4021 81.0355 11.4644C80.0979 10.5268 78.8261 9.99997 77.5 9.99997L12.5 9.99997C11.1739 9.99997 9.90214 10.5268 8.96446 11.4644C8.02678 12.4021 7.5 13.6739 7.5 15L7.5 40.575L10.2 37.825C10.8635 37.1568 11.6428 36.6146 12.5 36.225V36.225Z" fill="#101B79"/>
<path d="M51.6751 70L58.2251 70C58.7851 68.2101 59.6292 66.5219 60.7251 65L56.0251 65C55.6994 66.0958 55.1426 67.1091 54.3922 67.9716C53.6418 68.8341 52.7153 69.5258 51.6751 70V70Z" fill="#101B79"/>
<path d="M62.5 75C62.5 81.9035 68.0964 87.5 75 87.5C81.9036 87.5 87.5 81.9035 87.5 75C87.5 68.0964 81.9036 62.5 75 62.5C68.0964 62.5 62.5 68.0964 62.5 75Z" fill="#101B79"/>
</svg>
