<svg width="219" height="193" viewBox="0 0 219 193" fill="none" xmlns="http://www.w3.org/2000/svg">
<path d="M7.13836 185.14C6.11169 185.14 5.19169 184.973 4.37836 184.64C3.56503 184.307 2.91169 183.813 2.41836 183.16C1.93836 182.507 1.68503 181.72 1.65836 180.8H5.29836C5.35169 181.32 5.53169 181.72 5.83836 182C6.14503 182.267 6.54503 182.4 7.03836 182.4C7.54503 182.4 7.94503 182.287 8.23836 182.06C8.53169 181.82 8.67836 181.493 8.67836 181.08C8.67836 180.733 8.55836 180.447 8.31836 180.22C8.09169 179.993 7.80503 179.807 7.45836 179.66C7.12503 179.513 6.64503 179.347 6.01836 179.16C5.11169 178.88 4.37169 178.6 3.79836 178.32C3.22503 178.04 2.73169 177.627 2.31836 177.08C1.90503 176.533 1.69836 175.82 1.69836 174.94C1.69836 173.633 2.17169 172.613 3.11836 171.88C4.06503 171.133 5.29836 170.76 6.81836 170.76C8.36503 170.76 9.61169 171.133 10.5584 171.88C11.505 172.613 12.0117 173.64 12.0784 174.96H8.37836C8.35169 174.507 8.18503 174.153 7.87836 173.9C7.57169 173.633 7.17836 173.5 6.69836 173.5C6.28503 173.5 5.95169 173.613 5.69836 173.84C5.44503 174.053 5.31836 174.367 5.31836 174.78C5.31836 175.233 5.53169 175.587 5.95836 175.84C6.38503 176.093 7.05169 176.367 7.95836 176.66C8.86503 176.967 9.59836 177.26 10.1584 177.54C10.7317 177.82 11.225 178.227 11.6384 178.76C12.0517 179.293 12.2584 179.98 12.2584 180.82C12.2584 181.62 12.0517 182.347 11.6384 183C11.2384 183.653 10.6517 184.173 9.87836 184.56C9.10503 184.947 8.19169 185.14 7.13836 185.14ZM28.523 170.96V185H25.103V179.22H19.783V185H16.363V170.96H19.783V176.46H25.103V170.96H28.523ZM36.412 173.7V176.54H40.992V179.18H36.412V182.26H41.592V185H32.992V170.96H41.592V173.7H36.412ZM49.2323 182.36H53.7123V185H45.8123V170.96H49.2323V182.36ZM67.4435 170.96V173.7H63.7235V185H60.3035V173.7H56.5835V170.96H67.4435ZM74.5799 173.7V176.54H79.1599V179.18H74.5799V182.26H79.7599V185H71.1599V170.96H79.7599V173.7H74.5799ZM91.1402 185L88.2202 179.7H87.4002V185H83.9802V170.96H89.7202C90.8269 170.96 91.7669 171.153 92.5402 171.54C93.3269 171.927 93.9136 172.46 94.3002 173.14C94.6869 173.807 94.8802 174.553 94.8802 175.38C94.8802 176.313 94.6136 177.147 94.0802 177.88C93.5602 178.613 92.7869 179.133 91.7602 179.44L95.0002 185H91.1402ZM87.4002 177.28H89.5202C90.1469 177.28 90.6136 177.127 90.9202 176.82C91.2402 176.513 91.4002 176.08 91.4002 175.52C91.4002 174.987 91.2402 174.567 90.9202 174.26C90.6136 173.953 90.1469 173.8 89.5202 173.8H87.4002V177.28ZM115.965 175.48C115.965 176.293 115.779 177.04 115.405 177.72C115.032 178.387 114.459 178.927 113.685 179.34C112.912 179.753 111.952 179.96 110.805 179.96H108.685V185H105.265V170.96H110.805C111.925 170.96 112.872 171.153 113.645 171.54C114.419 171.927 114.999 172.46 115.385 173.14C115.772 173.82 115.965 174.6 115.965 175.48ZM110.545 177.24C111.199 177.24 111.685 177.087 112.005 176.78C112.325 176.473 112.485 176.04 112.485 175.48C112.485 174.92 112.325 174.487 112.005 174.18C111.685 173.873 111.199 173.72 110.545 173.72H108.685V177.24H110.545ZM126.906 185L123.986 179.7H123.166V185H119.746V170.96H125.486C126.593 170.96 127.533 171.153 128.306 171.54C129.093 171.927 129.679 172.46 130.066 173.14C130.453 173.807 130.646 174.553 130.646 175.38C130.646 176.313 130.379 177.147 129.846 177.88C129.326 178.613 128.553 179.133 127.526 179.44L130.766 185H126.906ZM123.166 177.28H125.286C125.913 177.28 126.379 177.127 126.686 176.82C127.006 176.513 127.166 176.08 127.166 175.52C127.166 174.987 127.006 174.567 126.686 174.26C126.379 173.953 125.913 173.8 125.286 173.8H123.166V177.28ZM141.433 185.14C140.113 185.14 138.899 184.833 137.793 184.22C136.699 183.607 135.826 182.753 135.173 181.66C134.533 180.553 134.213 179.313 134.213 177.94C134.213 176.567 134.533 175.333 135.173 174.24C135.826 173.147 136.699 172.293 137.793 171.68C138.899 171.067 140.113 170.76 141.433 170.76C142.753 170.76 143.959 171.067 145.053 171.68C146.159 172.293 147.026 173.147 147.653 174.24C148.293 175.333 148.613 176.567 148.613 177.94C148.613 179.313 148.293 180.553 147.653 181.66C147.013 182.753 146.146 183.607 145.053 184.22C143.959 184.833 142.753 185.14 141.433 185.14ZM141.433 182.02C142.553 182.02 143.446 181.647 144.113 180.9C144.793 180.153 145.133 179.167 145.133 177.94C145.133 176.7 144.793 175.713 144.113 174.98C143.446 174.233 142.553 173.86 141.433 173.86C140.299 173.86 139.393 174.227 138.713 174.96C138.046 175.693 137.713 176.687 137.713 177.94C137.713 179.18 138.046 180.173 138.713 180.92C139.393 181.653 140.299 182.02 141.433 182.02ZM165.695 170.96L160.715 185H156.435L151.455 170.96H155.095L158.575 181.56L162.075 170.96H165.695ZM172.545 170.96V185H169.125V170.96H172.545ZM182.283 170.96C183.763 170.96 185.057 171.253 186.163 171.84C187.27 172.427 188.123 173.253 188.723 174.32C189.337 175.373 189.643 176.593 189.643 177.98C189.643 179.353 189.337 180.573 188.723 181.64C188.123 182.707 187.263 183.533 186.143 184.12C185.037 184.707 183.75 185 182.283 185H177.023V170.96H182.283ZM182.063 182.04C183.357 182.04 184.363 181.687 185.083 180.98C185.803 180.273 186.163 179.273 186.163 177.98C186.163 176.687 185.803 175.68 185.083 174.96C184.363 174.24 183.357 173.88 182.063 173.88H180.443V182.04H182.063ZM196.974 173.7V176.54H201.554V179.18H196.974V182.26H202.154V185H193.554V170.96H202.154V173.7H196.974ZM213.535 185L210.615 179.7H209.795V185H206.375V170.96H212.115C213.221 170.96 214.161 171.153 214.935 171.54C215.721 171.927 216.308 172.46 216.695 173.14C217.081 173.807 217.275 174.553 217.275 175.38C217.275 176.313 217.008 177.147 216.475 177.88C215.955 178.613 215.181 179.133 214.155 179.44L217.395 185H213.535ZM209.795 177.28H211.915C212.541 177.28 213.008 177.127 213.315 176.82C213.635 176.513 213.795 176.08 213.795 175.52C213.795 174.987 213.635 174.567 213.315 174.26C213.008 173.953 212.541 173.8 211.915 173.8H209.795V177.28Z" fill="#151515"/>
<path d="M71.4599 26.8399V112.24C71.4582 113.534 70.9435 114.774 70.0287 115.689C69.1139 116.604 67.8736 117.118 66.5799 117.12H59.2599C57.9661 117.118 56.7259 116.604 55.8111 115.689C54.8962 114.774 54.3816 113.534 54.3799 112.24V26.8399C54.3816 25.5461 54.8962 24.3059 55.8111 23.3911C56.7259 22.4762 57.9661 21.9616 59.2599 21.9599H66.5799C67.8736 21.9616 69.1139 22.4762 70.0287 23.3911C70.9435 24.3059 71.4582 25.5461 71.4599 26.8399ZM161.74 4.87988H154.42C153.126 4.88156 151.886 5.39624 150.971 6.31106C150.056 7.22587 149.542 8.46614 149.54 9.75988V112.24C149.542 113.534 150.056 114.774 150.971 115.689C151.886 116.604 153.126 117.118 154.42 117.12H161.74C163.034 117.118 164.274 116.604 165.189 115.689C166.104 114.774 166.618 113.534 166.62 112.24V9.75988C166.618 8.46614 166.104 7.22587 165.189 6.31106C164.274 5.39624 163.034 4.88156 161.74 4.87988ZM76.3399 48.7999H144.66V63.4399H103.18V82.9599H115.38V78.0799C115.38 76.7856 115.894 75.5444 116.809 74.6292C117.724 73.714 118.966 73.1999 120.26 73.1999H134.9C136.194 73.1999 137.435 73.714 138.351 74.6292C139.266 75.5444 139.78 76.7856 139.78 78.0799V82.9599C141.074 82.9599 142.315 83.474 143.231 84.3892C144.146 85.3044 144.66 86.5456 144.66 87.8399V92.7199H76.3399V87.8399C76.3418 86.9867 76.5683 86.1492 76.9966 85.4113C77.4249 84.6735 78.04 84.0615 78.7799 83.6367V63.4399H76.3399V48.7999ZM98.2999 82.9599V75.6399H83.6599V82.9599H98.2999ZM98.2999 63.4399H83.6599V70.7599H98.2999V63.4399ZM76.3399 112.24H144.66V97.5999H76.3399V112.24ZM139.78 34.1599V29.2799C139.78 27.9856 139.266 26.7444 138.351 25.8292C137.435 24.914 136.194 24.3999 134.9 24.3999H120.26C118.966 24.3999 117.724 24.914 116.809 25.8292C115.894 26.7444 115.38 27.9856 115.38 29.2799V34.1599H81.2199C79.9256 34.1599 78.6844 34.674 77.7692 35.5892C76.854 36.5044 76.3399 37.7456 76.3399 39.0399V43.9199H144.66V39.0399C144.66 37.7456 144.146 36.5044 143.231 35.5892C142.315 34.674 141.074 34.1599 139.78 34.1599Z" fill="#101B79"/>
</svg>
