<svg width="50" height="50" viewBox="0 0 50 50" fill="none" xmlns="http://www.w3.org/2000/svg">
<circle cx="25" cy="25" r="25" fill="#101B79"/>
<g clip-path="url(#clip0_14_96)">
<path d="M25.648 20.7824C25.2734 20.4614 24.7208 20.4615 24.3463 20.7826L16 27.9399V35.4999C16 35.9141 16.3358 36.2499 16.75 36.2499H21.25C21.6642 36.2499 21.9999 35.9141 22 35.4999L22 30.2499H28L28 35.4999C28 35.9141 28.3358 36.2499 28.75 36.2499H33.25C33.6642 36.2499 33.9999 35.9141 34 35.4999V27.9399L25.648 20.7824Z" fill="white"/>
<path d="M24.5107 15.1779L14.0137 24.1794C13.8452 24.3214 13.7477 24.5303 13.7471 24.7507L13.7471 26.2477C13.7437 26.892 14.5005 27.2405 14.9878 26.819L24.9971 18.2365L35.0122 26.819C35.4992 27.2316 36.2462 26.886 36.2471 26.2477V24.7507C36.2483 24.5315 36.1535 24.3228 35.9878 24.1794L25.4907 15.1779C25.2138 14.9405 24.7873 14.9408 24.5107 15.1779Z" fill="white"/>
</g>
<defs>
<clipPath id="clip0_14_96">
<rect width="24" height="24" fill="white" transform="translate(13 12.9999)"/>
</clipPath>
</defs>
</svg>
