<svg width="123" height="122" viewBox="0 0 123 122" fill="none" xmlns="http://www.w3.org/2000/svg">
<path d="M22.4599 26.8399V112.24C22.4582 113.534 21.9435 114.774 21.0287 115.689C20.1139 116.604 18.8736 117.118 17.5799 117.12H10.2599C8.96614 117.118 7.72587 116.604 6.81106 115.689C5.89624 114.774 5.38156 113.534 5.37988 112.24V26.8399C5.38156 25.5461 5.89624 24.3059 6.81106 23.3911C7.72587 22.4762 8.96614 21.9616 10.2599 21.9599H17.5799C18.8736 21.9616 20.1139 22.4762 21.0287 23.3911C21.9435 24.3059 22.4582 25.5461 22.4599 26.8399ZM112.74 4.87988H105.42C104.126 4.88156 102.886 5.39624 101.971 6.31106C101.056 7.22587 100.542 8.46614 100.54 9.75988V112.24C100.542 113.534 101.056 114.774 101.971 115.689C102.886 116.604 104.126 117.118 105.42 117.12H112.74C114.034 117.118 115.274 116.604 116.189 115.689C117.104 114.774 117.618 113.534 117.62 112.24V9.75988C117.618 8.46614 117.104 7.22587 116.189 6.31106C115.274 5.39624 114.034 4.88156 112.74 4.87988ZM27.3399 48.7999H95.6599V63.4399H54.1799V82.9599H66.3799V78.0799C66.3799 76.7856 66.894 75.5444 67.8092 74.6292C68.7244 73.714 69.9656 73.1999 71.2599 73.1999H85.8999C87.1941 73.1999 88.4354 73.714 89.3506 74.6292C90.2657 75.5444 90.7799 76.7856 90.7799 78.0799V82.9599C92.0741 82.9599 93.3154 83.474 94.2306 84.3892C95.1457 85.3044 95.6599 86.5456 95.6599 87.8399V92.7199H27.3399V87.8399C27.3418 86.9867 27.5683 86.1492 27.9966 85.4113C28.4249 84.6735 29.04 84.0615 29.7799 83.6367V63.4399H27.3399V48.7999ZM49.2999 82.9599V75.6399H34.6599V82.9599H49.2999ZM49.2999 63.4399H34.6599V70.7599H49.2999V63.4399ZM27.3399 112.24H95.6599V97.5999H27.3399V112.24ZM90.7799 34.1599V29.2799C90.7799 27.9856 90.2657 26.7444 89.3506 25.8292C88.4354 24.914 87.1941 24.3999 85.8999 24.3999H71.2599C69.9656 24.3999 68.7244 24.914 67.8092 25.8292C66.894 26.7444 66.3799 27.9856 66.3799 29.2799V34.1599H32.2199C30.9256 34.1599 29.6844 34.674 28.7692 35.5892C27.854 36.5044 27.3399 37.7456 27.3399 39.0399V43.9199H95.6599V39.0399C95.6599 37.7456 95.1457 36.5044 94.2306 35.5892C93.3154 34.674 92.0741 34.1599 90.7799 34.1599Z" fill="#101B79"/>
</svg>
