<svg width="113" height="116" viewBox="0 0 113 116" fill="none" xmlns="http://www.w3.org/2000/svg">
<g clip-path="url(#clip0_1_382)">
<path d="M56.5 57.0982C70.031 57.0982 81 46.4001 81 33.2034C81 20.0067 70.031 9.30859 56.5 9.30859C42.969 9.30859 32 20.0067 32 33.2034C32 46.4001 42.969 57.0982 56.5 57.0982Z" stroke="#101B79" stroke-width="8" stroke-linejoin="round"/>
<path d="M82.925 67.3388C77.4561 62.305 70.5955 58.9434 63.1901 57.6689C55.7847 56.3945 48.1587 57.2631 41.2536 60.1674C34.3486 63.0718 28.4668 67.8848 24.3344 74.0122C20.202 80.1396 17.9999 87.3131 18 94.6472V111.715H49.5" stroke="#101B79" stroke-width="8" stroke-linejoin="round"/>
<path d="M83.31 79.3544L63.5 98.6409V108.301H73.405L93.18 88.9806L83.31 79.3544Z" stroke="#101B79" stroke-width="8" stroke-linejoin="round"/>
</g>
<defs>
<clipPath id="clip0_1_382">
<rect width="112" height="115" fill="white" transform="translate(0.5 0.308594)"/>
</clipPath>
</defs>
</svg>
