<svg width="25" height="24" viewBox="0 0 25 24" fill="none" xmlns="http://www.w3.org/2000/svg">
<path d="M12.4062 14.6251C13.1023 14.6251 13.77 14.3485 14.2623 13.8562C14.7546 13.364 15.0312 12.6963 15.0312 12.0001C15.0312 11.9232 15.0276 11.847 15.0211 11.7718L12.1779 14.615C12.2531 14.6216 12.329 14.6251 12.4062 14.6251ZM21.0949 3.88038L20.0937 2.88007C20.0585 2.84493 20.0108 2.8252 19.9611 2.8252C19.9114 2.8252 19.8637 2.84493 19.8286 2.88007L17.2664 5.44296C15.853 4.72062 14.2641 4.35945 12.4999 4.35945C7.99521 4.35945 4.63427 6.70554 2.41708 11.3977C2.32796 11.5864 2.28174 11.7926 2.28174 12.0012C2.28174 12.2099 2.32796 12.4161 2.41708 12.6048C3.30302 14.4709 4.36982 15.9666 5.61747 17.0919L3.13802 19.5704C3.10288 19.6056 3.08314 19.6532 3.08314 19.7029C3.08314 19.7526 3.10288 19.8003 3.13802 19.8355L4.13857 20.836C4.17372 20.8712 4.2214 20.8909 4.2711 20.8909C4.32081 20.8909 4.36848 20.8712 4.40364 20.836L21.0949 4.1457C21.1123 4.12828 21.1262 4.1076 21.1356 4.08484C21.145 4.06208 21.1499 4.03768 21.1499 4.01304C21.1499 3.9884 21.145 3.964 21.1356 3.94124C21.1262 3.91848 21.1123 3.8978 21.0949 3.88038ZM8.28115 12.0001C8.28108 11.2876 8.46556 10.5872 8.81662 9.96724C9.16768 9.34724 9.67333 8.82874 10.2843 8.46225C10.8953 8.09576 11.5909 7.89378 12.3031 7.87599C13.0154 7.85819 13.7201 8.02518 14.3487 8.3607L13.2091 9.50023C12.7496 9.35308 12.2583 9.33536 11.7894 9.44901C11.3204 9.56266 10.8918 9.80329 10.5506 10.1445C10.2094 10.4857 9.96874 10.9143 9.85508 11.3833C9.74143 11.8523 9.75915 12.3435 9.90631 12.803L8.76677 13.9426C8.44699 13.3451 8.28015 12.6777 8.28115 12.0001Z" fill="#808080"/>
<path d="M22.5828 11.3954C21.7578 9.65792 20.7759 8.24112 19.6369 7.14502L16.2587 10.5235C16.5434 11.268 16.6066 12.0789 16.4404 12.8584C16.2742 13.6379 15.8859 14.3526 15.3223 14.9162C14.7588 15.4798 14.044 15.8681 13.2645 16.0343C12.485 16.2004 11.6741 16.1373 10.9297 15.8525L8.06421 18.718C9.39358 19.3332 10.8722 19.6408 12.5 19.6408C17.0047 19.6408 20.3656 17.2947 22.5828 12.6025C22.6719 12.4137 22.7182 12.2076 22.7182 11.9989C22.7182 11.7902 22.6719 11.5841 22.5828 11.3954Z" fill="#808080"/>
</svg>
