<svg width="112" height="113" viewBox="0 0 112 113" fill="none" xmlns="http://www.w3.org/2000/svg">
<path d="M70 105.35H59.5C57.6441 105.348 55.8647 104.61 54.5523 103.298C53.2399 101.985 52.5019 100.206 52.5 98.3501V80.8501H59.5V98.3501H70V80.8501H77V66.8501C76.9991 65.9221 76.63 65.0324 75.9738 64.3762C75.3177 63.7201 74.428 63.351 73.5 63.3501H42.98L35.98 42.3501H14C13.072 42.351 12.1823 42.7201 11.5261 43.3762C10.87 44.0324 10.5009 44.9221 10.5 45.8501V66.8501H17.5V98.3501H31.5V73.8501H38.5V98.3501C38.4981 100.206 37.7601 101.985 36.4477 103.298C35.1353 104.61 33.3559 105.348 31.5 105.35H17.5C15.6441 105.348 13.8647 104.61 12.5523 103.298C11.2399 101.985 10.5019 100.206 10.5 98.3501V73.8501C8.64405 73.8482 6.86465 73.1102 5.5523 71.7978C4.23995 70.4854 3.50185 68.706 3.5 66.8501V45.8501C3.50278 43.0662 4.60992 40.3971 6.57845 38.4285C8.54698 36.46 11.2161 35.3529 14 35.3501H35.98C37.449 35.3492 38.8809 35.8109 40.0727 36.6697C41.2645 37.5285 42.1556 38.7408 42.6195 40.1346L48.02 56.3501H73.5C76.2839 56.3529 78.953 57.46 80.9216 59.4285C82.8901 61.3971 83.9972 64.0662 84 66.8501V80.8501C83.9981 82.706 83.2601 84.4854 81.9477 85.7978C80.6354 87.1102 78.8559 87.8482 77 87.8501V98.3501C76.9981 100.206 76.2601 101.985 74.9477 103.298C73.6354 104.61 71.8559 105.348 70 105.35Z" fill="#101B79"/>
<path d="M98 105.35H91V66.8501H101.5V45.8501C101.499 44.9221 101.13 44.0324 100.474 43.3762C99.8177 42.7201 98.928 42.351 98 42.3501H84V35.3501H98C100.784 35.3529 103.453 36.46 105.422 38.4285C107.39 40.3971 108.497 43.0662 108.5 45.8501V66.8501C108.498 68.706 107.76 70.4854 106.448 71.7978C105.135 73.1102 103.356 73.8482 101.5 73.8501H98V105.35Z" fill="#101B79"/>
<path d="M24.5 31.8501C21.7311 31.8501 19.0243 31.029 16.722 29.4907C14.4197 27.9523 12.6253 25.7658 11.5657 23.2077C10.5061 20.6495 10.2288 17.8346 10.769 15.1188C11.3092 12.4031 12.6426 9.90854 14.6005 7.95061C16.5584 5.99267 19.053 4.6593 21.7687 4.11911C24.4845 3.57892 27.2994 3.85616 29.8576 4.91579C32.4157 5.97542 34.6022 7.76983 36.1406 10.0721C37.6789 12.3744 38.5 15.0812 38.5 17.8501C38.4954 21.5617 37.0189 25.12 34.3944 27.7445C31.7699 30.369 28.2116 31.8455 24.5 31.8501V31.8501ZM24.5 10.8501C23.1155 10.8501 21.7622 11.2606 20.611 12.0298C19.4599 12.799 18.5627 13.8922 18.0328 15.1713C17.503 16.4504 17.3644 17.8579 17.6345 19.2157C17.9046 20.5736 18.5713 21.8209 19.5503 22.7999C20.5292 23.7788 21.7765 24.4455 23.1344 24.7156C24.4922 24.9857 25.8997 24.8471 27.1788 24.3173C28.4579 23.7874 29.5511 22.8902 30.3203 21.7391C31.0895 20.588 31.5 19.2346 31.5 17.8501C31.4982 15.9942 30.7601 14.2148 29.4477 12.9024C28.1354 11.5901 26.356 10.852 24.5 10.8501V10.8501Z" fill="#101B79"/>
<path d="M87.5 31.8501C84.7311 31.8501 82.0243 31.029 79.722 29.4907C77.4197 27.9523 75.6253 25.7658 74.5657 23.2077C73.5061 20.6495 73.2288 17.8346 73.769 15.1188C74.3092 12.4031 75.6426 9.90854 77.6005 7.95061C79.5585 5.99267 82.053 4.6593 84.7687 4.11911C87.4845 3.57892 90.2994 3.85616 92.8576 4.91579C95.4157 5.97542 97.6022 7.76983 99.1406 10.0721C100.679 12.3744 101.5 15.0812 101.5 17.8501C101.495 21.5617 100.019 25.12 97.3944 27.7445C94.7699 30.369 91.2116 31.8455 87.5 31.8501V31.8501ZM87.5 10.8501C86.1155 10.8501 84.7622 11.2606 83.611 12.0298C82.4599 12.799 81.5627 13.8922 81.0329 15.1713C80.503 16.4504 80.3644 17.8579 80.6345 19.2157C80.9046 20.5736 81.5713 21.8209 82.5503 22.7999C83.5292 23.7788 84.7765 24.4455 86.1344 24.7156C87.4922 24.9857 88.8997 24.8471 90.1788 24.3173C91.4579 23.7874 92.5511 22.8902 93.3203 21.7391C94.0895 20.588 94.5 19.2346 94.5 17.8501C94.4982 15.9942 93.7601 14.2148 92.4477 12.9024C91.1354 11.5901 89.356 10.852 87.5 10.8501V10.8501Z" fill="#101B79"/>
<path d="M64.75 52.8501C62.3272 52.8501 59.9588 52.1317 57.9443 50.7856C55.9298 49.4396 54.3597 47.5264 53.4325 45.288C52.5053 43.0496 52.2627 40.5865 52.7354 38.2102C53.2081 35.834 54.3748 33.6512 56.0879 31.938C57.8011 30.2249 59.9839 29.0582 62.3602 28.5855C64.7364 28.1128 67.1995 28.3554 69.4379 29.2826C71.6763 30.2098 73.5895 31.7799 74.9355 33.7944C76.2816 35.8089 77 38.1773 77 40.6001C76.9963 43.8479 75.7045 46.9616 73.408 49.2581C71.1115 51.5546 67.9978 52.8464 64.75 52.8501V52.8501ZM64.75 35.3501C63.7117 35.3501 62.6966 35.658 61.8333 36.2349C60.9699 36.8118 60.297 37.6317 59.8996 38.591C59.5023 39.5503 59.3983 40.6059 59.6009 41.6243C59.8035 42.6427 60.3035 43.5782 61.0377 44.3124C61.7719 45.0466 62.7074 45.5467 63.7258 45.7492C64.7442 45.9518 65.7998 45.8478 66.7591 45.4505C67.7184 45.0531 68.5383 44.3802 69.1152 43.5168C69.6921 42.6535 70 41.6385 70 40.6001C69.9982 39.2083 69.4444 37.874 68.4603 36.8898C67.4761 35.9057 66.1418 35.352 64.75 35.3501V35.3501Z" fill="#101B79"/>
</svg>
