<svg width="132" height="132" viewBox="0 0 132 132" fill="none" xmlns="http://www.w3.org/2000/svg">
<path d="M111.188 19C122.406 19 131.5 28.0942 131.5 39.3125V111.188C131.5 122.406 122.406 131.5 111.188 131.5H39.3125C28.0942 131.5 19 122.406 19 111.188V72.1369C21.9641 73.3725 25.1054 74.2675 28.3756 74.7725L28.375 111.188C28.375 112.49 28.6027 113.739 29.0204 114.898L65.4113 79.2687C70.6181 74.1706 78.7969 73.9281 84.2862 78.5413L85.0887 79.2694L121.478 114.904C121.896 113.744 122.125 112.493 122.125 111.188V39.3125C122.125 33.2719 117.228 28.375 111.188 28.375L74.7725 28.3756C74.2675 25.1054 73.3725 21.9641 72.1369 19H111.188ZM72.4925 85.525L71.97 85.9675L35.6778 121.507C36.815 121.907 38.0383 122.125 39.3125 122.125H111.188C112.459 122.125 113.681 121.908 114.816 121.509L78.5294 85.9675C76.8725 84.3456 74.3131 84.1975 72.4925 85.525ZM95.5756 40.875C103.349 40.875 109.651 47.1769 109.651 54.9507C109.651 62.7244 103.349 69.0263 95.5756 69.0263C87.8019 69.0263 81.5 62.7244 81.5 54.9507C81.5 47.1769 87.8019 40.875 95.5756 40.875ZM34.625 0.25C53.6098 0.25 69 15.6402 69 34.625C69 53.6098 53.6098 69 34.625 69C15.6402 69 0.25 53.6098 0.25 34.625C0.25 15.6402 15.6402 0.25 34.625 0.25ZM95.5756 50.25C92.9794 50.25 90.875 52.3546 90.875 54.9507C90.875 57.5469 92.9794 59.6512 95.5756 59.6512C98.1719 59.6512 100.276 57.5469 100.276 54.9507C100.276 52.3546 98.1719 50.25 95.5756 50.25ZM34.625 12.7452L34.0633 12.7956C32.7877 13.0271 31.7819 14.0329 31.5504 15.3085L31.5 15.8702L31.4978 31.4952L15.8603 31.5L15.2986 31.5504C14.023 31.7819 13.0172 32.7877 12.7857 34.0633L12.7353 34.625L12.7857 35.1867C13.0172 36.4623 14.023 37.4681 15.2986 37.6996L15.8603 37.75L31.5041 37.7452L31.5069 53.3968L31.5573 53.9585C31.7888 55.2341 32.7946 56.2399 34.0702 56.4714L34.6319 56.5219L35.1936 56.4714C36.4692 56.2399 37.4751 55.2341 37.7066 53.9585L37.7569 53.3968L37.7541 37.7452L53.4036 37.75L53.9653 37.6996C55.2408 37.4681 56.2467 36.4623 56.4782 35.1867L56.5287 34.625L56.4782 34.0633C56.2467 32.7877 55.2408 31.7819 53.9653 31.5504L53.4036 31.5L37.7478 31.4952L37.75 15.8702L37.6996 15.3085C37.4681 14.0329 36.4623 13.0271 35.1867 12.7956L34.625 12.7452Z" fill="#151515"/>
</svg>
