<svg width="226" height="225" viewBox="0 0 226 225" fill="none" xmlns="http://www.w3.org/2000/svg">
<path d="M108.67 7.49999C110.594 4.16666 115.406 4.16667 117.33 7.5L206.098 161.25C208.022 164.583 205.617 168.75 201.768 168.75H24.2324C20.3834 168.75 17.9778 164.583 19.9023 161.25L108.67 7.49999Z" fill="#DDEBFF"/>
<g clip-path="url(#clip0_1_86)">
<path d="M66 120.627L71.6266 112H94.3776C92.8998 113.834 90.1523 116.833 88.8836 118.181C88.4746 118.616 87.9932 118.975 87.4623 119.256C79.2673 123.593 78.1478 123.152 71.6266 123.862C66.3425 124.437 65.6739 121.945 66 120.627Z" fill="#101B79"/>
<path d="M61.0456 120.57C56.6205 125.106 58.2308 133.023 59.8484 136.913C59.9439 137.143 59.9193 137.405 59.7757 137.61L57.503 140.848C57.3838 141.018 57.3475 141.24 57.3975 141.44C61.1601 156.516 54.6207 154.557 50.3971 151.367C50.0878 151.133 49.6459 151.16 49.3805 151.441L38.6423 162.792C38.207 163.252 38.5402 164 39.1807 164H60.9028C61.1109 164 61.3092 163.913 61.4484 163.762L61.7996 163.38C62.0859 163.068 62.0363 162.584 61.7171 162.305C58.468 159.462 59.286 156.391 60.2925 154.926C60.4143 154.749 60.4671 154.533 60.4372 154.321C60.0437 151.539 62.2626 149.906 63.76 149.291C64.0068 149.189 64.1922 148.981 64.2656 148.729C64.8227 146.816 66.4174 145.988 67.4473 145.739C67.6868 145.681 67.8987 145.536 68.0232 145.327C70.1026 141.844 74.4946 143.062 76.6765 144.234C76.8139 144.307 76.9752 144.341 77.1307 144.324C85.4036 143.379 86.7351 138.947 86.3209 136.339C86.2642 135.982 86.4416 135.622 86.753 135.428C88.1892 134.531 88.4945 133.024 88.4446 132.029C88.4295 131.727 88.564 131.43 88.8074 131.244C90.4078 130.024 90.4526 128.183 90.2033 127.107C90.1488 126.872 90.1889 126.62 90.333 126.426C93.2622 122.469 91.3641 121.187 89.8361 121.005C89.6874 120.988 89.5379 121.029 89.4104 121.105C82.2581 125.418 76.3782 126.658 74.3177 126.737L68.9357 126.498C64.6649 126.498 63.323 122.83 62.9879 120.817C62.9549 120.619 62.8472 120.44 62.6804 120.324L62.4852 120.187C62.2435 120.018 61.9216 120.008 61.6698 120.163L61.1824 120.461C61.1326 120.491 61.0862 120.528 61.0456 120.57Z" fill="#DDC114"/>
<path d="M48.3296 141.755C49.3644 133.522 52.655 130.606 54.7312 129.985C55.1302 129.866 55.4794 130.193 55.4952 130.602C55.6012 133.346 56.2604 135.759 56.6931 136.939C56.7725 137.156 56.7528 137.397 56.6289 137.592L54.8462 140.405C54.7088 140.622 54.6997 140.892 54.8125 141.123C55.6099 142.75 56.8207 146.101 56.4591 149.023C56.0866 152.033 53.9118 151.593 52.7186 150.923C52.6029 150.858 52.5138 150.758 52.4549 150.641L48.5152 142.813C48.351 142.486 48.2842 142.116 48.3296 141.755Z" fill="#101B79"/>
<path d="M79.4548 146.387L77.1308 146.507V147.705C70.8682 143.488 69.8732 146.667 70.1587 148.783C67.0274 147.537 66.326 150.181 66.3669 151.659C63.0398 151.371 63.0234 154.095 63.4313 155.493C61.2295 156.811 61.898 158.535 62.0858 158.728C67.1008 163.88 69.3431 161.164 69.6694 159.327C72.7029 159.423 73.0535 157.45 72.8497 156.452C75.8832 156.452 76.4784 154.135 76.3969 152.977C79.7239 153.36 79.8218 148.743 79.4548 146.387Z" fill="#101B79"/>
</g>
<path d="M113.193 45.1963L83.1283 54.7758V56.9865L113.193 47.407L142.816 56.9865V54.7758L113.193 45.1963Z" fill="#101B79"/>
<path d="M113.193 49.6176L91.5288 56.9865H97.4239L113.193 51.8283L128.521 56.9865H134.71L113.193 49.6176Z" fill="#101B79"/>
<path d="M142.816 59.7867H83.1283V61.85H142.816V59.7867Z" fill="#101B79"/>
<path d="M88.4339 63.6185H83.8651V90.5886H88.4339V63.6185Z" fill="#101B79"/>
<path d="M96.0975 63.6185H91.5288V90.5886H96.0975V63.6185Z" fill="#101B79"/>
<path d="M134.268 63.6185H129.7V90.5886H134.268V63.6185Z" fill="#101B79"/>
<path d="M141.932 63.6185H137.805L137.216 90.5886H141.932V63.6185Z" fill="#101B79"/>
<path d="M142.816 91.7676L83.1283 92.2098V94.2731H142.816V91.7676Z" fill="#101B79"/>
<path d="M146.353 96.9259H79.2964V99.2839H146.353V96.9259Z" fill="#101B79"/>
<path d="M148.859 101.789H76.791V104H148.859V101.789Z" fill="#101B79"/>
<path d="M106.787 69.086V70.045H105.485V74H104.288V70.045H102.986V69.086H106.787ZM110.411 74.049C109.949 74.049 109.525 73.9417 109.137 73.727C108.755 73.5123 108.449 73.2137 108.22 72.831C107.996 72.4437 107.884 72.0097 107.884 71.529C107.884 71.0483 107.996 70.6167 108.22 70.234C108.449 69.8513 108.755 69.5527 109.137 69.338C109.525 69.1233 109.949 69.016 110.411 69.016C110.873 69.016 111.296 69.1233 111.678 69.338C112.066 69.5527 112.369 69.8513 112.588 70.234C112.812 70.6167 112.924 71.0483 112.924 71.529C112.924 72.0097 112.812 72.4437 112.588 72.831C112.364 73.2137 112.061 73.5123 111.678 73.727C111.296 73.9417 110.873 74.049 110.411 74.049ZM110.411 72.957C110.803 72.957 111.116 72.8263 111.349 72.565C111.587 72.3037 111.706 71.9583 111.706 71.529C111.706 71.095 111.587 70.7497 111.349 70.493C111.116 70.2317 110.803 70.101 110.411 70.101C110.015 70.101 109.697 70.2293 109.459 70.486C109.226 70.7427 109.109 71.0903 109.109 71.529C109.109 71.963 109.226 72.3107 109.459 72.572C109.697 72.8287 110.015 72.957 110.411 72.957ZM121.052 69.086L119.771 74H118.322L117.538 70.766L116.726 74H115.277L114.031 69.086H115.312L116.019 72.663L116.894 69.086H118.21L119.05 72.663L119.764 69.086H121.052ZM126.749 74H125.552L123.55 70.969V74H122.353V69.086H123.55L125.552 72.131V69.086H126.749V74ZM110.163 80.086V85H108.966V82.977H107.104V85H105.907V80.086H107.104V82.011H108.966V80.086H110.163ZM114.787 84.132H112.953L112.659 85H111.406L113.184 80.086H114.57L116.348 85H115.081L114.787 84.132ZM114.479 83.208L113.87 81.409L113.268 83.208H114.479ZM118.786 84.076H120.354V85H117.589V80.086H118.786V84.076ZM122.822 84.076H124.39V85H121.625V80.086H122.822V84.076Z" fill="#101B79"/>
<g clip-path="url(#clip1_1_86)">
<path d="M155.5 167C170.964 167 183.5 154.464 183.5 139C183.5 123.536 170.964 111 155.5 111C140.036 111 127.5 123.536 127.5 139C127.5 154.464 140.036 167 155.5 167Z" fill="#101B79"/>
<path d="M145.907 133.165C146.115 135.965 142.71 139.084 140.981 140.294L147.981 147.294L152.778 143.276C156.718 143.172 159.691 140.64 160.685 139.387L169.889 130.442C170.822 127.85 168.722 127.893 167.556 128.239L163.407 132.387C162.163 133.009 162.197 132.128 162.37 131.609L169.241 125.257C170.07 123.079 168.29 122.794 167.296 122.924L161.074 128.757C160.037 129.379 160.037 128.498 160.167 127.979L167.296 121.368C167.607 118.983 165.87 118.905 164.963 119.165L157.963 125.905C156.822 126.424 156.883 125.689 157.056 125.257L162.759 119.942C163.589 117.35 161.722 117.307 160.685 117.609L155.5 122.535V127.979L158.222 133.683C158.43 135.031 157.531 134.936 157.056 134.72L156.018 133.165L155.5 138.479C154.981 139.309 154.593 138.825 154.463 138.479V134.72H153.944L153.685 138.998C153.167 140.242 152.691 139.516 152.518 138.998L152.778 134.461H152C152.043 135.541 152.104 137.753 152 137.961C151.378 139.828 150.704 138.739 150.444 137.961L151.222 133.683H150.444V136.665C149.822 137.702 149.235 137.097 149.018 136.665L149.796 129.405C150.937 128.368 151.481 126.813 151.611 126.165L152 122.146C150.652 119.554 149.018 120.807 148.37 121.757C147.679 125.344 146.218 132.646 145.907 133.165Z" fill="white"/>
<path d="M146.782 156.171C146.782 156.48 146.727 156.75 146.618 156.982C146.509 157.215 146.353 157.394 146.149 157.52C145.947 157.647 145.714 157.71 145.452 157.71C145.192 157.71 144.96 157.647 144.756 157.523C144.553 157.398 144.395 157.22 144.283 156.989C144.171 156.756 144.114 156.489 144.113 156.188V156.033C144.113 155.725 144.168 155.454 144.279 155.22C144.391 154.984 144.548 154.804 144.75 154.68C144.954 154.553 145.186 154.49 145.447 154.49C145.708 154.49 145.94 154.553 146.142 154.68C146.346 154.804 146.503 154.984 146.614 155.22C146.726 155.454 146.782 155.724 146.782 156.031V156.171ZM146.127 156.029C146.127 155.7 146.069 155.451 145.951 155.28C145.833 155.109 145.665 155.024 145.447 155.024C145.231 155.024 145.064 155.109 144.946 155.278C144.828 155.446 144.769 155.692 144.767 156.018V156.171C144.767 156.491 144.826 156.739 144.944 156.916C145.061 157.092 145.231 157.18 145.452 157.18C145.668 157.18 145.835 157.096 145.951 156.927C146.067 156.756 146.126 156.508 146.127 156.182V156.029ZM149.622 154.533V156.597C149.622 156.94 149.515 157.211 149.299 157.411C149.086 157.61 148.793 157.71 148.421 157.71C148.056 157.71 147.765 157.613 147.55 157.419C147.335 157.225 147.225 156.959 147.221 156.621V154.533H147.866V156.601C147.866 156.806 147.915 156.957 148.013 157.051C148.112 157.145 148.248 157.191 148.421 157.191C148.784 157.191 148.969 157 148.975 156.619V154.533H149.622ZM152.51 155.056H151.551V157.667H150.905V155.056H149.958V154.533H152.51V155.056ZM154.04 156.52H153.526V157.667H152.881V154.533H154.045C154.415 154.533 154.701 154.616 154.901 154.781C155.102 154.946 155.203 155.179 155.203 155.48C155.203 155.694 155.156 155.873 155.063 156.016C154.971 156.158 154.831 156.271 154.643 156.356L155.321 157.637V157.667H154.628L154.04 156.52ZM153.526 155.997H154.047C154.209 155.997 154.335 155.956 154.424 155.874C154.513 155.791 154.557 155.677 154.557 155.532C154.557 155.384 154.515 155.268 154.43 155.183C154.347 155.098 154.218 155.056 154.045 155.056H153.526V155.997ZM157.581 156.309H156.341V157.148H157.796V157.667H155.695V154.533H157.791V155.056H156.341V155.803H157.581V156.309ZM159.944 157.021H158.812L158.596 157.667H157.91L159.076 154.533H159.675L160.847 157.667H160.161L159.944 157.021ZM158.986 156.498H159.769L159.375 155.325L158.986 156.498ZM163.553 156.623C163.528 156.96 163.403 157.225 163.178 157.419C162.954 157.613 162.659 157.71 162.291 157.71C161.89 157.71 161.573 157.575 161.342 157.305C161.113 157.034 160.998 156.662 160.998 156.19V155.999C160.998 155.698 161.051 155.432 161.157 155.203C161.263 154.973 161.415 154.797 161.611 154.675C161.809 154.552 162.039 154.49 162.3 154.49C162.662 154.49 162.953 154.587 163.174 154.781C163.395 154.975 163.522 155.246 163.557 155.596H162.911C162.895 155.394 162.839 155.248 162.741 155.157C162.645 155.066 162.498 155.02 162.3 155.02C162.085 155.02 161.923 155.097 161.816 155.252C161.71 155.406 161.655 155.644 161.652 155.969V156.205C161.652 156.544 161.703 156.791 161.805 156.948C161.908 157.104 162.07 157.182 162.291 157.182C162.491 157.182 162.639 157.137 162.737 157.047C162.836 156.955 162.893 156.814 162.907 156.623H163.553ZM166.527 157.667H165.881V156.324H164.622V157.667H163.977V154.533H164.622V155.803H165.881V154.533H166.527V157.667Z" fill="white"/>
</g>
<defs>
<clipPath id="clip0_1_86">
<rect width="57" height="52" fill="white" transform="translate(37.5 112)"/>
</clipPath>
<clipPath id="clip1_1_86">
<rect width="56" height="56" fill="white" transform="translate(127.5 111)"/>
</clipPath>
</defs>
</svg>
