<svg width="121" height="83" viewBox="0 0 121 83" fill="none" xmlns="http://www.w3.org/2000/svg">
<path d="M90.7 23.6851H50.7902V44.8876H46.5394V37.6806C46.5345 33.5972 44.7618 29.6824 41.6101 26.795C38.4584 23.9076 34.1852 22.2834 29.728 22.2788H20.0904V11.0288H13.9504V71.4976H20.0904V63.1052L99.9099 63.6902V71.4976H106.05V37.7476C106.045 34.0193 104.427 30.4449 101.549 27.8085C98.6712 25.1722 94.7696 23.6893 90.7 23.6851ZM20.0904 27.9038H29.728C32.5573 27.9067 35.2698 28.9377 37.2704 30.7705C39.2709 32.6033 40.3963 35.0883 40.3995 37.6802V44.8873H20.0904V27.9038ZM99.9099 58.0651L20.0904 57.4801V50.5126H99.9099V58.0651ZM99.9099 44.8876H56.9302V29.3101H90.7C93.1418 29.3126 95.4827 30.2024 97.2093 31.7842C98.9359 33.366 99.9071 35.5106 99.9099 37.7476V44.8876Z" fill="#101B79"/>
</svg>
