<svg width="121" height="63" viewBox="0 0 121 63" fill="none" xmlns="http://www.w3.org/2000/svg">
<path d="M33.4902 31.6942C41.739 31.6942 48.4506 25.9456 48.4506 18.8803C48.4506 11.8151 41.739 6.06646 33.4902 6.06646C25.2415 6.06646 18.5299 11.8151 18.5299 18.8803C18.5299 25.9456 25.2415 31.6942 33.4902 31.6942ZM99.3159 11.192H57.4269C55.7737 11.192 54.4348 12.3389 54.4348 13.7548V36.8197H12.5457V3.50369C12.5457 2.08776 11.2067 0.940918 9.55363 0.940918H3.56947C1.91635 0.940918 0.577393 2.08776 0.577393 3.50369V59.8847C0.577393 61.3006 1.91635 62.4475 3.56947 62.4475H9.55363C11.2067 62.4475 12.5457 61.3006 12.5457 59.8847V52.1964H108.292V59.8847C108.292 61.3006 109.631 62.4475 111.284 62.4475H117.268C118.922 62.4475 120.26 61.3006 120.26 59.8847V29.1314C120.26 19.2231 110.884 11.192 99.3159 11.192Z" fill="#101B79"/>
</svg>
