<svg width="120" height="120" viewBox="0 0 120 120" fill="none" xmlns="http://www.w3.org/2000/svg">
<path d="M32.7947 44.2384L40.0631 27.9913L76.8195 44.741L69.5654 60.5292L32.7947 44.2384Z" stroke="#101B79" stroke-width="3"/>
<path d="M94.3107 65.5002L87.3107 67.0002L90.8107 83.5002L97.8107 82.0002L94.3107 65.5002Z" fill="#101B79"/>
<path d="M74.3107 64.5002C76.7107 65.3002 82.9774 68.5002 85.8107 70.0002L88.3107 83.5002C81.3511 81.6689 64.3567 88.3627 54.7589 92.8313C53.1925 93.5606 51.3993 93.6129 49.7697 93.0385C47.0875 92.0932 43.0754 90.8529 38.8107 90C32.8107 88.8 28.644 82.8333 27.3107 80C26.644 77.3333 24.8107 70.7 22.8107 65.5002C20.8107 60.3004 22.9774 60.3335 24.3107 61C24.9422 62.0525 25.6014 62.228 26.1571 62.0367C26.8512 61.7976 27.7952 61.7377 28.449 62.0717C29.4527 62.5844 30.5513 62.243 31.3901 61.7244C31.9139 61.4005 32.6376 61.4527 32.9982 61.9519L38.8107 70.0002C40.8107 75.2004 47.9774 76.5001 51.3107 76.5C58.5655 74.9727 55.4627 71.1976 52.7014 69.2632C52.4471 69.085 52.1486 68.9835 51.8408 68.943C44.9019 68.0313 40.2778 64.2932 38.8107 62.5002C35.9683 57.1706 38.7015 55.9176 40.9831 55.9377C41.5268 55.9425 42.0274 56.1856 42.4696 56.5019C50.9293 62.5528 71.3896 63.5265 74.3107 64.5002Z" fill="#101B79"/>
<path d="M55.9306 47.7217C55.7106 48.1027 55.4062 48.3981 55.0172 48.6077C54.6392 48.8144 54.1963 48.9097 53.6883 48.8935C53.1912 48.8744 52.6734 48.7233 52.1349 48.4401L51.6489 49.2819L50.9838 48.8979L51.4758 48.0457C50.7774 47.5593 50.311 46.9991 50.0767 46.365C49.8464 45.7239 49.9053 45.0698 50.2536 44.4025L52.145 45.4945C51.9466 45.9342 51.9935 46.3169 52.2858 46.6427L53.2338 45.0007C52.7734 44.5502 52.4184 44.1651 52.1687 43.8454C51.926 43.5298 51.7675 43.1565 51.693 42.7255C51.6185 42.2945 51.7272 41.8262 52.0192 41.3204C52.3832 40.6899 52.9073 40.3182 53.5915 40.2051C54.2826 40.0961 55.0094 40.2293 55.7718 40.6048L56.2578 39.763L56.9229 40.147L56.4369 40.9888C57.1324 41.4642 57.5854 42.0075 57.796 42.6187C58.0066 43.2299 57.9482 43.8751 57.6207 44.5544L55.7189 43.4564C55.8933 43.0583 55.8567 42.7138 55.6089 42.4229L54.6789 44.0337C55.1619 44.5251 55.5233 44.9231 55.7631 45.2278C56.0029 45.5325 56.16 45.9004 56.2345 46.3314C56.3199 46.7594 56.2186 47.2229 55.9306 47.7217ZM53.9482 42.3233C53.8482 42.4965 53.8162 42.672 53.8521 42.8497C53.895 43.0315 53.9909 43.2254 54.1398 43.4315L54.9738 41.987C54.7598 41.9096 54.5634 41.8978 54.3845 41.9516C54.2097 41.9985 54.0642 42.1223 53.9482 42.3233ZM52.9329 47.0579C53.1607 47.1433 53.3716 47.1541 53.5653 47.0905C53.766 47.0308 53.9224 46.904 54.0344 46.71C54.1384 46.5299 54.1635 46.3504 54.1097 46.1716C54.0669 45.9898 53.9586 45.7933 53.7849 45.5822L52.9329 47.0579Z" fill="#101B79"/>
<circle cx="60" cy="60" r="58.5" stroke="#101B79" stroke-width="3"/>
</svg>
