<svg width="24" height="29" viewBox="0 0 24 29" fill="none" xmlns="http://www.w3.org/2000/svg">
<path d="M12 0.0625C8.99255 0.066048 6.10929 1.26233 3.98269 3.38893C1.85609 5.51552 0.65981 8.39879 0.656262 11.4062C0.65266 13.8639 1.45546 16.255 2.94151 18.2125C2.94151 18.2125 3.25089 18.6198 3.30142 18.6786L12 28.9375L20.7027 18.6735C20.7481 18.6188 21.0585 18.2125 21.0585 18.2125L21.0595 18.2094C22.5449 16.2527 23.3473 13.8628 23.3438 11.4062C23.3402 8.39879 22.1439 5.51552 20.0173 3.38893C17.8907 1.26233 15.0075 0.066048 12 0.0625ZM15.7125 16.5625L12 14.1999L8.28751 16.5625L8.90626 12.3612L5.81251 9.52216L10.1438 8.99931L12 5.21875L13.9718 9.00034L18.1875 9.52216L15.0938 12.3612L15.7125 16.5625Z" fill="#101B79"/>
</svg>
