<svg width="104" height="24" viewBox="0 0 104 24" fill="none" xmlns="http://www.w3.org/2000/svg">
<path d="M39.4797 16.528H43.2397V18H37.6557V6.88H39.4797V16.528ZM48.5891 18.144C47.7571 18.144 47.0051 17.9573 46.3331 17.584C45.6611 17.2 45.1331 16.6667 44.7491 15.984C44.3651 15.2907 44.1731 14.4907 44.1731 13.584C44.1731 12.688 44.3704 11.8933 44.7651 11.2C45.1597 10.5067 45.6984 9.97333 46.3811 9.6C47.0637 9.22667 47.8264 9.04 48.6691 9.04C49.5117 9.04 50.2744 9.22667 50.9571 9.6C51.6397 9.97333 52.1784 10.5067 52.5731 11.2C52.9677 11.8933 53.1651 12.688 53.1651 13.584C53.1651 14.48 52.9624 15.2747 52.5571 15.968C52.1517 16.6613 51.5971 17.2 50.8931 17.584C50.1997 17.9573 49.4317 18.144 48.5891 18.144ZM48.5891 16.56C49.0584 16.56 49.4957 16.448 49.9011 16.224C50.3171 16 50.6531 15.664 50.9091 15.216C51.1651 14.768 51.2931 14.224 51.2931 13.584C51.2931 12.944 51.1704 12.4053 50.9251 11.968C50.6797 11.52 50.3544 11.184 49.9491 10.96C49.5437 10.736 49.1064 10.624 48.6371 10.624C48.1677 10.624 47.7304 10.736 47.3251 10.96C46.9304 11.184 46.6157 11.52 46.3811 11.968C46.1464 12.4053 46.0291 12.944 46.0291 13.584C46.0291 14.5333 46.2691 15.2693 46.7491 15.792C47.2397 16.304 47.8531 16.56 48.5891 16.56ZM58.5202 9.04C59.2029 9.04 59.8055 9.17867 60.3282 9.456C60.8615 9.72267 61.2775 10.0587 61.5762 10.464V9.184H63.4162V18.144C63.4162 18.9547 63.2455 19.6747 62.9042 20.304C62.5629 20.944 62.0669 21.4453 61.4162 21.808C60.7762 22.1707 60.0082 22.352 59.1122 22.352C57.9175 22.352 56.9255 22.0693 56.1362 21.504C55.3469 20.9493 54.8989 20.192 54.7922 19.232H56.6002C56.7389 19.6907 57.0322 20.0587 57.4802 20.336C57.9389 20.624 58.4829 20.768 59.1122 20.768C59.8482 20.768 60.4402 20.544 60.8882 20.096C61.3469 19.648 61.5762 18.9973 61.5762 18.144V16.672C61.2669 17.088 60.8455 17.44 60.3122 17.728C59.7895 18.0053 59.1922 18.144 58.5202 18.144C57.7522 18.144 57.0482 17.952 56.4082 17.568C55.7789 17.1733 55.2775 16.6293 54.9042 15.936C54.5415 15.232 54.3602 14.4373 54.3602 13.552C54.3602 12.6667 54.5415 11.8827 54.9042 11.2C55.2775 10.5173 55.7789 9.98933 56.4082 9.616C57.0482 9.232 57.7522 9.04 58.5202 9.04ZM61.5762 13.584C61.5762 12.976 61.4482 12.448 61.1922 12C60.9469 11.552 60.6215 11.2107 60.2162 10.976C59.8109 10.7413 59.3735 10.624 58.9042 10.624C58.4349 10.624 57.9975 10.7413 57.5922 10.976C57.1869 11.2 56.8562 11.536 56.6002 11.984C56.3549 12.4213 56.2322 12.944 56.2322 13.552C56.2322 14.16 56.3549 14.6933 56.6002 15.152C56.8562 15.6107 57.1869 15.9627 57.5922 16.208C58.0082 16.4427 58.4455 16.56 58.9042 16.56C59.3735 16.56 59.8109 16.4427 60.2162 16.208C60.6215 15.9733 60.9469 15.632 61.1922 15.184C61.4482 14.7253 61.5762 14.192 61.5762 13.584ZM69.6359 18.144C68.8039 18.144 68.0519 17.9573 67.3799 17.584C66.7079 17.2 66.1799 16.6667 65.7959 15.984C65.4119 15.2907 65.2199 14.4907 65.2199 13.584C65.2199 12.688 65.4173 11.8933 65.8119 11.2C66.2066 10.5067 66.7453 9.97333 67.4279 9.6C68.1106 9.22667 68.8733 9.04 69.7159 9.04C70.5586 9.04 71.3213 9.22667 72.0039 9.6C72.6866 9.97333 73.2253 10.5067 73.6199 11.2C74.0146 11.8933 74.2119 12.688 74.2119 13.584C74.2119 14.48 74.0093 15.2747 73.6039 15.968C73.1986 16.6613 72.6439 17.2 71.9399 17.584C71.2466 17.9573 70.4786 18.144 69.6359 18.144ZM69.6359 16.56C70.1053 16.56 70.5426 16.448 70.9479 16.224C71.3639 16 71.6999 15.664 71.9559 15.216C72.2119 14.768 72.3399 14.224 72.3399 13.584C72.3399 12.944 72.2173 12.4053 71.9719 11.968C71.7266 11.52 71.4013 11.184 70.9959 10.96C70.5906 10.736 70.1533 10.624 69.6839 10.624C69.2146 10.624 68.7773 10.736 68.3719 10.96C67.9773 11.184 67.6626 11.52 67.4279 11.968C67.1933 12.4053 67.0759 12.944 67.0759 13.584C67.0759 14.5333 67.3159 15.2693 67.7959 15.792C68.2866 16.304 68.8999 16.56 69.6359 16.56ZM83.9991 9.184V18H82.1751V16.96C81.8871 17.3227 81.5084 17.6107 81.0391 17.824C80.5804 18.0267 80.0897 18.128 79.5671 18.128C78.8737 18.128 78.2497 17.984 77.6951 17.696C77.1511 17.408 76.7191 16.9813 76.3991 16.416C76.0897 15.8507 75.9351 15.168 75.9351 14.368V9.184H77.7431V14.096C77.7431 14.8853 77.9404 15.4933 78.3351 15.92C78.7297 16.336 79.2684 16.544 79.9511 16.544C80.6337 16.544 81.1724 16.336 81.5671 15.92C81.9724 15.4933 82.1751 14.8853 82.1751 14.096V9.184H83.9991ZM88.5337 10.672V15.552C88.5337 15.8827 88.6084 16.1227 88.7577 16.272C88.9177 16.4107 89.1844 16.48 89.5577 16.48H90.6777V18H89.2377C88.4164 18 87.787 17.808 87.3497 17.424C86.9124 17.04 86.6937 16.416 86.6937 15.552V10.672H85.6537V9.184H86.6937V6.992H88.5337V9.184H90.6777V10.672H88.5337Z" fill="#808080"/>
<path d="M15.7975 16V17C15.7975 17.7956 15.4134 18.5587 14.7298 19.1213C14.0461 19.6839 13.1188 20 12.152 20H7.2912C6.32433 20 5.39707 19.6839 4.71339 19.1213C4.02972 18.5587 3.64563 17.7956 3.64563 17V7C3.64563 6.20435 4.02972 5.44129 4.71339 4.87868C5.39707 4.31607 6.32433 4 7.2912 4H12.152C13.1188 4 14.0461 4.31607 14.7298 4.87868C15.4134 5.44129 15.7975 6.20435 15.7975 7V8M20.6583 16L25.519 12L20.6583 16ZM25.519 12L20.6583 8L25.519 12ZM25.519 12H8.50639H25.519Z" stroke="#151515" stroke-width="2" stroke-linecap="round" stroke-linejoin="round"/>
</svg>
