<svg width="101" height="78" viewBox="0 0 101 78" fill="none" xmlns="http://www.w3.org/2000/svg">
<path d="M24.8181 28.702L24.9833 18.1289C25.0004 17.0367 25.8907 16.1602 26.9831 16.1602H30.4295C31.5463 16.1602 32.4467 17.0747 32.4292 18.1914L32.265 28.702" stroke="white" stroke-width="3" stroke-linecap="round"/>
<path d="M20.8982 13.5303V25.7019C20.8982 27.3588 22.2413 28.7019 23.8982 28.7019H33.2604C34.8871 28.7019 36.2174 27.4055 36.2594 25.7794L36.5758 13.5303" stroke="white" stroke-width="3" stroke-linecap="round"/>
<path d="M15.1781 16.4742C14.5693 17.036 14.5311 17.985 15.0929 18.5939C15.6547 19.2027 16.6037 19.2408 17.2125 18.679L15.1781 16.4742ZM29.1294 5.6416L30.1805 4.57151L29.1617 3.57073L28.1121 4.53922L29.1294 5.6416ZM40.2284 18.6467C40.8194 19.2273 41.7691 19.2188 42.3497 18.6278C42.9302 18.0368 42.9217 17.0871 42.3307 16.5065L40.2284 18.6467ZM17.2125 18.679L30.1466 6.74398L28.1121 4.53922L15.1781 16.4742L17.2125 18.679ZM28.0782 6.71169L40.2284 18.6467L42.3307 16.5065L30.1805 4.57151L28.0782 6.71169Z" fill="white"/>
<path d="M28.314 4.25712C27.7019 4.81529 27.6581 5.76403 28.2163 6.37618C28.7745 6.98834 29.7232 7.0321 30.3354 6.47393L28.314 4.25712ZM28.3928 41.209C27.7436 41.7237 27.6346 42.6671 28.1493 43.3163C28.664 43.9654 29.6075 44.0744 30.2566 43.5597L28.3928 41.209ZM30.3354 6.47393C32.9142 4.12254 36.4681 3.18396 39.8076 3.59251C43.1496 4.00136 46.1072 5.73204 47.6307 8.51356C49.1347 11.2594 49.4154 15.3562 46.7423 20.8688C44.058 26.4044 38.4404 33.2424 28.3928 41.209L30.2566 43.5597C40.492 35.4443 46.4856 28.2738 49.4417 22.1778C52.4088 16.0588 52.3588 10.9009 50.2619 7.0724C48.1844 3.27953 44.2708 1.11616 40.172 0.614712C36.0707 0.112972 31.6144 1.24785 28.314 4.25712L30.3354 6.47393Z" fill="white"/>
<path d="M30.1408 4.26413C30.7525 4.82284 30.7954 5.77162 30.2367 6.38328C29.6779 6.99494 28.7292 7.03786 28.1175 6.47915L30.1408 4.26413ZM30.0621 41.2831C30.7108 41.7984 30.819 42.742 30.3037 43.3907C29.7885 44.0394 28.8449 44.1475 28.1962 43.6323L30.0621 41.2831ZM28.1175 6.47915C25.5385 4.1234 21.985 3.18347 18.6462 3.59266C15.3052 4.00213 12.3472 5.73551 10.8231 8.52309C9.31815 11.2756 9.03779 15.3817 11.7114 20.9053C14.3961 26.4515 20.0142 33.3021 30.0621 41.2831L28.1962 43.6323C17.9605 35.5021 11.967 28.3188 9.01116 22.2123C6.04435 16.0831 6.09471 10.9177 8.19084 7.08391C10.2678 3.28517 14.1813 1.11742 18.2813 0.61494C22.3835 0.11218 26.8405 1.24948 30.1408 4.26413L28.1175 6.47915Z" fill="white"/>
<ellipse cx="30.2209" cy="22.2291" rx="0.783883" ry="0.809154" fill="#151515"/>
<path d="M66.7505 45.8828C69.7895 48.0406 90.5164 55.1639 100.5 58.4559V78.0003C91.6227 73.6433 72.6206 64.2487 67.6302 61.5266C64.6993 59.9279 58.1863 61.0657 51.8786 62.874C44.3669 65.0273 35.9366 64.9292 28.1224 64.9292C27.0918 64.9292 24.5235 63.8503 22.844 63.9333C21.5005 63.9997 19.4851 63.5737 18.6453 63.3524C12.9191 61.2278 6.87564 61.7479 4.5697 62.2735H1.17075C-2.05177 58.8115 7.34212 57.0652 8.12152 56.9639C7.79463 56.9229 6.33767 56.0773 5.60938 55.6342C3.88192 52.6466 7.90201 52.5359 10.128 52.854L14.4466 54.0159C15.85 51.5888 21.1607 53.2655 24.6884 54.8734C25.7238 55.3454 26.8377 55.6342 27.9757 55.6342H29.6819C30.3669 55.6342 31.0439 55.486 31.6662 55.1998C32.3145 54.9017 32.1222 53.9333 31.4092 53.9055L28.9222 53.8084C27.6692 53.7116 25.2913 52.8872 25.8031 50.3643C26.315 47.8414 31.7213 47.1553 34.3605 47.1277C39.063 47.6588 43.9442 45.6338 45.7969 44.5549C58.1531 40.4469 62.9516 43.1856 66.7505 45.8828Z" fill="white"/>
</svg>
