<svg width="90" height="90" viewBox="0 0 90 90" fill="none" xmlns="http://www.w3.org/2000/svg">
<path d="M73.125 39.375H36.5625V60.5776H32.6682V53.3705C32.6637 49.2872 31.0396 45.3723 28.1523 42.4849C25.265 39.5975 21.3502 37.9734 17.2668 37.9688H8.4375V26.7188H2.8125V87.1875H8.4375V78.7952L81.5625 79.3802V87.1875H87.1875V53.4375C87.1833 49.7092 85.7003 46.1348 83.064 43.4985C80.4277 40.8622 76.8533 39.3792 73.125 39.375ZM8.4375 43.5938H17.2668C19.8588 43.5967 22.3438 44.6276 24.1766 46.4604C26.0094 48.2932 27.0403 50.7782 27.0432 53.3702V60.5772H8.4375V43.5938ZM81.5625 73.755L8.4375 73.17V66.2026H81.5625V73.755ZM81.5625 60.5776H42.1875V45H73.125C75.362 45.0026 77.5066 45.8923 79.0884 47.4741C80.6702 49.0559 81.5599 51.2005 81.5625 53.4375V60.5776Z" fill="#101B79"/>
<path d="M76.8199 31H73.1799C72.9518 31 72.7306 30.9221 72.5529 30.7792C72.3752 30.6362 72.2517 30.4368 72.2029 30.214L71.7959 28.33C71.2529 28.0921 70.7381 27.7946 70.2609 27.443L68.4239 28.028C68.2064 28.0973 67.9718 28.0902 67.759 28.0078C67.5462 27.9254 67.3679 27.7727 67.2539 27.575L65.4299 24.424C65.317 24.2261 65.2747 23.9958 65.3097 23.7708C65.3448 23.5457 65.4552 23.3392 65.6229 23.185L67.0479 21.885C66.9831 21.2961 66.9831 20.7019 67.0479 20.113L65.6229 18.816C65.455 18.6618 65.3444 18.4551 65.3093 18.2298C65.2743 18.0045 65.3168 17.774 65.4299 17.576L67.2499 14.423C67.3639 14.2253 67.5422 14.0726 67.755 13.9902C67.9678 13.9078 68.2024 13.9007 68.4199 13.97L70.2569 14.555C70.5009 14.375 70.7549 14.207 71.0169 14.055C71.2699 13.913 71.5299 13.784 71.7959 13.669L72.2039 11.787C72.2525 11.5642 72.3757 11.3647 72.5532 11.2215C72.7307 11.0784 72.9518 11.0002 73.1799 11H76.8199C77.0479 11.0002 77.269 11.0784 77.4465 11.2215C77.6241 11.3647 77.7473 11.5642 77.7959 11.787L78.2079 13.67C78.4879 13.794 78.7619 13.933 79.0269 14.088C79.2739 14.231 79.5129 14.388 79.7429 14.557L81.5809 13.972C81.7982 13.9029 82.0326 13.9102 82.2452 13.9926C82.4578 14.075 82.6359 14.2275 82.7499 14.425L84.5699 17.578C84.8019 17.985 84.7219 18.5 84.3769 18.817L82.9519 20.117C83.0167 20.7059 83.0167 21.3001 82.9519 21.889L84.3769 23.189C84.7219 23.507 84.8019 24.021 84.5699 24.428L82.7499 27.581C82.6358 27.7787 82.4576 27.9314 82.2448 28.0138C82.0319 28.0962 81.7973 28.1033 81.5799 28.034L79.7429 27.449C79.266 27.8003 78.7515 28.0975 78.2089 28.335L77.7959 30.214C77.7471 30.4366 77.6238 30.6359 77.4463 30.7788C77.2688 30.9218 77.0478 30.9998 76.8199 31ZM74.9959 17C73.935 17 72.9176 17.4214 72.1675 18.1716C71.4173 18.9217 70.9959 19.9391 70.9959 21C70.9959 22.0609 71.4173 23.0783 72.1675 23.8284C72.9176 24.5786 73.935 25 74.9959 25C76.0568 25 77.0742 24.5786 77.8243 23.8284C78.5745 23.0783 78.9959 22.0609 78.9959 21C78.9959 19.9391 78.5745 18.9217 77.8243 18.1716C77.0742 17.4214 76.0568 17 74.9959 17Z" fill="#101B79"/>
</svg>
