<svg width="31" height="19" viewBox="0 0 31 19" fill="none" xmlns="http://www.w3.org/2000/svg">
<path d="M28.1562 8.6875H25.6334C25.5912 8.46344 25.5397 8.24406 25.4834 8.02563L29.9825 5.77656C30.4456 5.545 30.6322 4.98156 30.4016 4.51844C30.1691 4.05531 29.6084 3.86969 29.1434 4.09938L24.8516 6.24437C23.2147 2.71187 19.6437 0.25 15.5 0.25C10.4544 0.25 6.25156 3.895 5.36656 8.6875H2.84375C1.55187 8.6875 0.5 9.73844 0.5 11.0312C0.5 11.4906 0.66875 11.9341 0.973437 12.2772L4.25 15.9634V16.6562C4.25 17.9491 5.30188 19 6.59375 19H24.4062C25.6991 19 26.75 17.9491 26.75 16.6562V15.9634L30.0256 12.2772C30.3312 11.9341 30.5 11.4906 30.5 11.0312C30.5 9.73844 29.4491 8.6875 28.1562 8.6875ZM24.6866 8.6875H24.1597L24.6266 8.45312C24.6444 8.53187 24.6697 8.60781 24.6866 8.6875ZM15.5 1.1875C19.2772 1.1875 22.5312 3.4375 24.0144 6.66344L23.1791 7.08062C21.8516 4.16031 18.9172 2.125 15.5 2.125C11.4856 2.125 8.13219 4.93094 7.27812 8.6875H6.31437C7.18531 4.41344 10.9728 1.1875 15.5 1.1875ZM19.79 8.6875C19.0653 7.03469 17.4172 5.875 15.5 5.875C13.5828 5.875 11.9356 7.03469 11.21 8.6875H10.2031C10.9775 6.50688 13.0559 4.9375 15.5 4.9375C17.8109 4.9375 19.8012 6.34 20.6637 8.33781L19.9662 8.6875H19.79ZM15.5 7.75C14.6722 7.75 13.9344 8.11656 13.4187 8.6875H12.2712C12.9219 7.57281 14.1181 6.8125 15.5 6.8125C16.8809 6.8125 18.0781 7.57281 18.7278 8.6875H17.5794C17.0656 8.11656 16.3278 7.75 15.5 7.75ZM15.5 4C12.5328 4 10.0231 5.98 9.21406 8.6875H8.24656C9.08281 5.45875 12.0125 3.0625 15.5 3.0625C18.5431 3.0625 21.1653 4.88875 22.3391 7.50062L21.5019 7.91875C20.4819 5.61531 18.1766 4 15.5 4ZM24.875 15.25V16.6562C24.875 16.915 24.6641 17.125 24.4062 17.125H6.59375C6.335 17.125 6.125 16.915 6.125 16.6562V15.25L2.375 11.0312C2.375 10.7725 2.585 10.5625 2.84375 10.5625H5.1875H6.125H7.0625H8H8.9375H9.875H10.8125H11.75H12.6875H18.3125H19.25H20.1875H21.125H22.0625H23H23.9375H24.875H25.8125H28.1562C28.4141 10.5625 28.625 10.7725 28.625 11.0312L24.875 15.25Z" fill="#808080"/>
</svg>
