<svg width="66" height="72" viewBox="0 0 66 72" fill="none" xmlns="http://www.w3.org/2000/svg">
<path d="M44.7775 13.0293L52.72 20.9681L44.7775 13.0293ZM49.885 6.03557L28.4088 27.5118C27.2991 28.6199 26.5423 30.0318 26.2338 31.5693L24.25 41.4993L34.18 39.5118C35.7175 39.2043 37.1275 38.4506 38.2375 37.3406L59.7138 15.8643C60.3591 15.219 60.8711 14.4528 61.2203 13.6096C61.5696 12.7664 61.7494 11.8626 61.7494 10.9499C61.7494 10.0373 61.5696 9.13351 61.2203 8.2903C60.8711 7.44709 60.3591 6.68094 59.7138 6.03557C59.0684 5.39021 58.3022 4.87827 57.459 4.529C56.6158 4.17974 55.7121 3.99997 54.7994 3.99997C53.8867 3.99997 52.9829 4.17974 52.1397 4.529C51.2965 4.87827 50.5304 5.39021 49.885 6.03557V6.03557Z" stroke="#101B79" stroke-width="7" stroke-linecap="round" stroke-linejoin="round"/>
<path d="M60.25 48.9993V60.2493C60.25 62.2385 59.4598 64.1461 58.0533 65.5526C56.6468 66.9592 54.7391 67.7493 52.75 67.7493H11.5C9.51088 67.7493 7.60322 66.9592 6.1967 65.5526C4.79018 64.1461 4 62.2385 4 60.2493V18.9993C4 17.0102 4.79018 15.1026 6.1967 13.696C7.60322 12.2895 9.51088 11.4993 11.5 11.4993H22.75" stroke="#101B79" stroke-width="7" stroke-linecap="round" stroke-linejoin="round"/>
</svg>
