<svg width="51" height="122" viewBox="0 0 51 122" fill="none" xmlns="http://www.w3.org/2000/svg">
<path d="M37.6563 27.6569C39.5331 27.6569 41.2604 28.0193 42.8387 28.7445C47.5233 31.1025 50.2894 35.5838 50.3245 40.581V75.0025C49.4458 80.4747 43.1824 78.9867 43.0308 75.0025V42.5004C42.4726 40.6469 38.8936 41.4154 38.808 42.5004V117.102C37.898 124.72 28.0545 122.484 27.8034 116.974V71.2917C27.174 68.3452 23.0316 69.6841 22.9408 71.4197C23.1165 86.6039 23.0688 101.789 23.0688 116.974C22.0871 124.553 12.2915 122.613 12.0641 117.102L11.9362 42.5004C11.3625 40.6869 8.04616 41.3825 7.9693 42.5004V75.0025C7.09049 80.4747 0.827224 78.9867 0.675537 75.0025V40.581C0.764089 35.7969 2.51743 31.0043 6.68972 28.7445C8.0547 28.0193 9.71817 27.6568 11.6802 27.6568L37.6563 27.6569V27.6569ZM37.5272 12.0248C37.5272 18.666 32.1435 24.0498 25.5023 24.0498C18.8613 24.0498 13.4775 18.666 13.4775 12.0248C13.4774 5.38376 18.8611 0 25.5021 0C32.1435 0 37.5272 5.38376 37.5272 12.0248V12.0248Z" fill="#101B79"/>
</svg>
