<svg width="24" height="23" viewBox="0 0 24 23" fill="none" xmlns="http://www.w3.org/2000/svg">
<path d="M12.9966 6.73619C13.8945 6.73619 14.7556 7.09287 15.3905 7.72776C16.0254 8.36265 16.3821 9.22374 16.3821 10.1216C16.3821 10.4209 16.5009 10.7079 16.7126 10.9196C16.9242 11.1312 17.2112 11.2501 17.5105 11.2501C17.8098 11.2501 18.0968 11.1312 18.3085 10.9196C18.5201 10.7079 18.639 10.4209 18.639 10.1216C18.639 8.62516 18.0445 7.19001 16.9864 6.13186C15.9282 5.07371 14.4931 4.47925 12.9966 4.47925C12.6973 4.47925 12.4103 4.59814 12.1987 4.80977C11.9871 5.0214 11.8682 5.30843 11.8682 5.60772C11.8682 5.90701 11.9871 6.19404 12.1987 6.40567C12.4103 6.6173 12.6973 6.73619 12.9966 6.73619Z" fill="#101B79"/>
<path d="M12.9967 2.22203C15.0917 2.22203 17.1009 3.05428 18.5823 4.53569C20.0638 6.01709 20.896 8.02631 20.896 10.1213C20.896 10.4206 21.0149 10.7077 21.2265 10.9193C21.4381 11.1309 21.7252 11.2498 22.0245 11.2498C22.3238 11.2498 22.6108 11.1309 22.8224 10.9193C23.0341 10.7077 23.1529 10.4206 23.1529 10.1213C23.1529 7.42773 22.0829 4.84445 20.1782 2.93978C18.2736 1.03512 15.6903 -0.0349121 12.9967 -0.0349121C12.6974 -0.0349121 12.4104 0.0839801 12.1987 0.29561C11.9871 0.507239 11.8682 0.794271 11.8682 1.09356C11.8682 1.39285 11.9871 1.67988 12.1987 1.89151C12.4104 2.10314 12.6974 2.22203 12.9967 2.22203ZM22.8708 15.6621C22.8088 15.481 22.7016 15.3186 22.5595 15.1903C22.4173 15.062 22.2449 14.9719 22.0583 14.9286L15.2875 13.3826C15.1037 13.341 14.9124 13.346 14.7311 13.3972C14.5497 13.4485 14.3841 13.5443 14.2493 13.676C14.0913 13.8227 14.08 13.834 13.3465 15.2333C10.9126 14.1118 8.9624 12.1536 7.85086 9.71509C9.28402 8.99287 9.2953 8.99287 9.442 8.8236C9.57371 8.68881 9.66956 8.52318 9.72081 8.34183C9.77206 8.16048 9.77708 7.96919 9.73541 7.7854L8.1894 1.09356C8.14612 0.907019 8.05608 0.73456 7.92776 0.592419C7.79943 0.450277 7.63705 0.343129 7.45589 0.28106C7.19236 0.186934 6.92022 0.118899 6.64339 0.077935C6.35817 0.0118012 6.06712 -0.0259979 5.77447 -0.0349121C4.39774 -0.0349121 3.07739 0.511992 2.1039 1.48549C1.1304 2.45898 0.583496 3.77933 0.583496 5.15606C0.589468 9.76328 2.42233 14.1801 5.68013 17.4379C8.93793 20.6957 13.3547 22.5286 17.962 22.5345C18.6437 22.5345 19.3187 22.4003 19.9485 22.1394C20.5783 21.8785 21.1505 21.4962 21.6325 21.0141C22.1146 20.5321 22.4969 19.9599 22.7578 19.3301C23.0187 18.7003 23.1529 18.0252 23.1529 17.3436C23.1533 17.0563 23.1306 16.7695 23.0852 16.4859C23.0378 16.2056 22.9661 15.93 22.8708 15.6621Z" fill="#101B79"/>
</svg>
