<svg width="32" height="30" viewBox="0 0 32 30" fill="none" xmlns="http://www.w3.org/2000/svg">
<path d="M13.4167 22.5C15.7094 22.4995 17.936 21.7568 19.742 20.39L25.4202 25.885L27.2466 24.1175L21.5684 18.6225C22.9815 16.8746 23.7495 14.7193 23.75 12.5C23.75 6.98625 19.1143 2.5 13.4167 2.5C7.71917 2.5 3.08337 6.98625 3.08337 12.5C3.08337 18.0138 7.71917 22.5 13.4167 22.5ZM13.4167 5C17.6908 5 21.1667 8.36375 21.1667 12.5C21.1667 16.6362 17.6908 20 13.4167 20C9.14258 20 5.66671 16.6362 5.66671 12.5C5.66671 8.36375 9.14258 5 13.4167 5Z" fill="white"/>
</svg>
