<svg width="130" height="99" viewBox="0 0 130 99" fill="none" xmlns="http://www.w3.org/2000/svg">
<g filter="url(#filter0_i_608_436)">
<mask id="path-1-inside-1_608_436" fill="white">
<path d="M0 86.5814V46.7666H36.6549C38.6772 46.7666 42.9747 48.0306 44.8706 48.6625C49.2945 50.5585 57.5103 54.9824 61.9341 56.8783C64.8163 58.1135 66.9483 58.159 68.2926 58.1475C68.6877 58.1441 69.081 58.1028 69.4686 58.0257C72.2732 57.4679 74.1044 57.195 80.2616 58.1423C86.8342 59.1534 88.056 64.4621 87.8453 66.99L118.858 58.6405C120.078 58.312 121.366 58.2166 122.594 58.5165C130.339 60.4088 130.113 65.3037 128.795 69.2324C128.169 71.0994 126.731 72.5555 124.988 73.4727C109.474 81.6384 81.714 94.4645 76.4697 97.3251C70.9082 100.359 64.462 98.589 61.9341 97.3251C54.1397 92.9012 38.5508 85.9494 36.6549 84.6854C34.8701 83.4956 30.5457 82.3682 28.4391 82.1575H25.8238C23.3356 82.1575 20.8412 84.1094 18.5591 85.101C15.9526 86.2334 12.329 86.5814 10.7437 86.5814H0Z"/>
</mask>
<path d="M86.6222 64.8096C82.5291 67.1058 75.6441 69.88 68.4657 70.6831C61.2816 71.4869 54.2301 70.286 49.1663 65.2222L45.6308 68.7578C52.1955 75.3224 61.0488 76.5441 69.0217 75.6521C77.0003 74.7594 84.5245 71.7194 89.0685 69.1703L86.6222 64.8096ZM0 46.7666V41.7666H-5V46.7666H0ZM0 86.5814H-5V91.5814H0V86.5814ZM18.5591 85.101L20.5515 89.6868L20.5515 89.6868L18.5591 85.101ZM28.4391 82.1575L28.9367 77.1823L28.6885 77.1575H28.4391V82.1575ZM36.6549 84.6854L39.4284 80.5252H39.4284L36.6549 84.6854ZM61.9341 97.3251L59.4661 101.673L59.5804 101.738L59.6981 101.797L61.9341 97.3251ZM76.4697 97.3251L78.8639 101.715L78.8639 101.715L76.4697 97.3251ZM124.988 73.4727L122.659 69.0482L122.659 69.0482L124.988 73.4727ZM128.795 69.2324L124.055 67.6424L124.055 67.6424L128.795 69.2324ZM122.594 58.5165L123.78 53.6594L123.78 53.6593L122.594 58.5165ZM118.858 58.6405L120.158 63.4685L118.858 58.6405ZM87.8453 66.99L82.8626 66.5748L82.2715 73.6687L89.1452 71.8181L87.8453 66.99ZM80.2616 58.1423L79.5013 63.0841L80.2616 58.1423ZM69.4686 58.0257L68.4932 53.1218L68.4932 53.1218L69.4686 58.0257ZM68.2926 58.1475L68.2499 53.1477H68.2499L68.2926 58.1475ZM61.9341 56.8783L63.9037 52.2826V52.2826L61.9341 56.8783ZM44.8706 48.6625L46.8402 44.0668L46.6491 43.9849L46.4518 43.9191L44.8706 48.6625ZM-5 46.7666V86.5814H5V46.7666H-5ZM0 91.5814H10.7437V81.5814H0V91.5814ZM10.7437 91.5814C12.6632 91.5814 17.0588 91.2043 20.5515 89.6868L16.5666 80.5151C15.7992 80.8485 14.6972 81.1338 13.4793 81.3285C12.2836 81.5196 11.2463 81.5814 10.7437 81.5814V91.5814ZM25.8238 87.1575H28.4391V77.1575H25.8238V87.1575ZM27.9416 87.1327C28.5908 87.1976 29.8817 87.4503 31.2685 87.8545C31.9362 88.0491 32.5502 88.2572 33.0541 88.4591C33.3041 88.5593 33.5049 88.6493 33.6578 88.725C33.8168 88.8036 33.8829 88.8467 33.8814 88.8457L39.4284 80.5252C37.8614 79.4806 35.7063 78.7319 34.0669 78.2541C32.3186 77.7445 30.3941 77.3281 28.9367 77.1823L27.9416 87.1327ZM33.8814 88.8457C34.7128 89.4 36.4395 90.2508 38.1238 91.069C39.9885 91.9747 42.3928 93.1169 44.9212 94.329C50.0619 96.7933 55.7464 99.5623 59.4661 101.673L64.4021 92.9766C60.3274 90.6639 54.3203 87.7451 49.244 85.3116C46.6638 84.0747 44.3283 82.9655 42.4932 82.0741C41.5784 81.6297 40.8224 81.256 40.2487 80.9616C39.5947 80.626 39.3925 80.5013 39.4284 80.5252L33.8814 88.8457ZM59.6981 101.797C61.5178 102.707 64.3764 103.643 67.6441 103.919C70.9453 104.197 74.9942 103.825 78.8639 101.715L74.0754 92.9356C72.3837 93.8583 70.4288 94.1183 68.4845 93.9543C66.5069 93.7875 64.8784 93.207 64.1702 92.8529L59.6981 101.797ZM78.8639 101.715C81.337 100.366 89.382 96.5407 99.0447 91.8945C108.567 87.3155 119.467 82.0291 127.317 77.8972L122.659 69.0482C114.996 73.082 104.258 78.2915 94.7111 82.8822C85.3041 87.4055 76.8467 91.424 74.0754 92.9356L78.8639 101.715ZM133.536 70.8224C134.299 68.5469 135.147 64.9402 133.762 61.3233C132.234 57.3297 128.632 54.8446 123.78 53.6594L121.407 63.3736C122.876 63.7326 123.644 64.1577 124.013 64.4352C124.337 64.6783 124.399 64.8355 124.423 64.8983C124.533 65.1841 124.609 65.9892 124.055 67.6424L133.536 70.8224ZM117.558 53.8124L86.5455 62.1619L89.1452 71.8181L120.158 63.4685L117.558 53.8124ZM92.8281 67.4052C93.0082 65.2439 92.5972 62.1769 90.8428 59.3564C88.9606 56.3304 85.7291 53.9246 81.0218 53.2004L79.5013 63.0841C81.3666 63.3711 82.0324 64.1252 82.3515 64.6382C82.7985 65.3568 82.8932 66.2081 82.8626 66.5748L92.8281 67.4052ZM81.0218 53.2004C77.8284 52.7091 75.5222 52.4955 73.546 52.52C71.495 52.5454 69.9712 52.8278 68.4932 53.1218L70.4439 62.9297C71.7706 62.6658 72.5647 62.5329 73.6698 62.5192C74.8496 62.5046 76.5376 62.6282 79.5013 63.0841L81.0218 53.2004ZM68.2499 53.1477C67.2614 53.1561 65.9011 53.1386 63.9037 52.2826L59.9645 61.474C63.7316 63.0885 66.6351 63.1618 68.3352 63.1473L68.2499 53.1477ZM63.9037 52.2826C61.8595 51.4065 58.8559 49.907 55.6384 48.2983C52.5361 46.7471 49.2199 45.0867 46.8402 44.0668L42.901 53.2583C44.9452 54.1344 47.9488 55.6338 51.1663 57.2426C54.2686 58.7937 57.5848 60.4542 59.9645 61.474L63.9037 52.2826ZM46.4518 43.9191C45.4061 43.5706 43.7375 43.0598 42.0344 42.6298C40.4933 42.2406 38.3608 41.7666 36.6549 41.7666V51.7666C36.6536 51.7666 36.6778 51.7666 36.7313 51.7702C36.7839 51.7736 36.8549 51.7798 36.9458 51.7901C37.1303 51.8111 37.363 51.8454 37.6439 51.8957C38.2093 51.9969 38.8747 52.1458 39.586 52.3254C41.0111 52.6853 42.4393 53.1225 43.2895 53.406L46.4518 43.9191ZM36.6549 41.7666H0V51.7666H36.6549V41.7666ZM68.4932 53.1218C68.4055 53.1392 68.3244 53.147 68.2499 53.1477L68.3352 63.1473C69.0509 63.1412 69.7565 63.0664 70.4439 62.9297L68.4932 53.1218ZM123.78 53.6593C121.535 53.1107 119.366 53.3257 117.558 53.8124L120.158 63.4685C120.79 63.2983 121.198 63.3226 121.407 63.3736L123.78 53.6593ZM127.317 77.8972C129.936 76.5184 132.415 74.1635 133.536 70.8224L124.055 67.6424C123.923 68.0353 123.525 68.5926 122.659 69.0482L127.317 77.8972ZM20.5515 89.6868C21.3394 89.3445 22.0892 88.9447 22.6934 88.6165C23.3573 88.256 23.8423 87.9843 24.356 87.7267C24.8486 87.4796 25.209 87.3282 25.4857 87.2395C25.7564 87.1528 25.8522 87.1575 25.8238 87.1575V77.1575C23.3571 77.1575 21.2352 78.1045 19.8723 78.7882C19.1661 79.1424 18.4442 79.5447 17.9207 79.829C17.3377 80.1456 16.9198 80.3617 16.5666 80.5151L20.5515 89.6868Z" fill="#101B79" mask="url(#path-1-inside-1_608_436)"/>
</g>
<path d="M89.478 52.6651H84.5011C83.3278 52.6651 82.2026 52.199 81.373 51.3694C80.5433 50.5397 80.0772 49.4145 80.0772 48.2412V45.371C80.063 45.2018 80.001 45.0403 79.8984 44.9051C79.7958 44.7699 79.6569 44.6666 79.4979 44.6073C79.3368 44.5041 79.1495 44.4492 78.9581 44.4492C78.7668 44.4492 78.5794 44.5041 78.4183 44.6073L76.4697 46.7139C76.0609 47.1255 75.5748 47.4522 75.0393 47.6751C74.5037 47.8981 73.9294 48.0128 73.3493 48.0128C72.7692 48.0128 72.1948 47.8981 71.6593 47.6751C71.1238 47.4522 70.6376 47.1255 70.2289 46.7139L66.6213 43.1854C66.2037 42.7774 65.8721 42.29 65.646 41.7518C65.4198 41.2136 65.3038 40.6356 65.3047 40.0518C65.3064 38.8577 65.7796 37.7125 66.6213 36.8655L68.5699 34.9169C68.664 34.7719 68.7141 34.6027 68.7141 34.4298C68.7141 34.2569 68.664 34.0877 68.5699 33.9426C68.4119 33.5476 68.1486 33.258 67.7799 33.258H65.094C63.9183 33.251 62.7932 32.7791 61.9643 31.9453C61.1354 31.1115 60.6701 29.9835 60.6702 28.8078V23.8309C60.6702 22.6577 61.1363 21.5324 61.9659 20.7028C62.7955 19.8732 63.9207 19.4071 65.094 19.4071H67.9643C68.1334 19.3928 68.295 19.3308 68.4302 19.2282C68.5654 19.1257 68.6686 18.9868 68.7279 18.8278C68.8312 18.6666 68.886 18.4793 68.886 18.2879C68.886 18.0966 68.8312 17.9092 68.7279 17.7481L66.6213 15.7995C66.2097 15.3908 65.883 14.9046 65.6601 14.3691C65.4372 13.8336 65.3224 13.2592 65.3224 12.6791C65.3224 12.099 65.4372 11.5247 65.6601 10.9891C65.883 10.4536 66.2097 9.96745 66.6213 9.55871L70.1499 5.95115C70.5538 5.53555 71.0368 5.20496 71.5704 4.97884C72.1041 4.75273 72.6776 4.63566 73.2571 4.63453C73.8529 4.63191 74.4433 4.74686 74.9946 4.97279C75.5458 5.19872 76.0471 5.53119 76.4697 5.95115L78.4183 7.89976C78.5634 7.99383 78.7326 8.0439 78.9054 8.0439C79.0783 8.0439 79.2475 7.99383 79.3926 7.89976C79.7876 7.74177 80.0772 7.47844 80.0772 7.10978V4.42387C80.0842 3.24817 80.5561 2.123 81.3899 1.29411C82.2238 0.465222 83.3517 -2.05821e-05 84.5274 6.8292e-10H89.636C90.8092 6.8292e-10 91.9345 0.466085 92.7641 1.29572C93.5937 2.12536 94.0598 3.25058 94.0598 4.42387V7.29411C94.0741 7.46322 94.1361 7.62479 94.2387 7.75999C94.3412 7.89519 94.4801 7.99846 94.6391 8.05776C94.8003 8.16099 94.9876 8.21585 95.179 8.21585C95.3703 8.21585 95.5576 8.16099 95.7188 8.05776L97.5357 5.95115C97.9445 5.53954 98.4306 5.21285 98.9661 4.98992C99.5017 4.767 100.076 4.65223 100.656 4.65223C101.236 4.65223 101.811 4.767 102.346 4.98992C102.882 5.21285 103.368 5.53954 103.777 5.95115L107.384 9.47971C107.8 9.88854 108.131 10.3762 108.357 10.9142C108.583 11.4521 108.7 12.0297 108.701 12.6133C108.713 13.2065 108.603 13.796 108.376 14.3444C108.15 14.8928 107.812 15.3883 107.384 15.7995L105.435 17.7481C105.341 17.8932 105.291 18.0624 105.291 18.2353C105.291 18.4082 105.341 18.5774 105.435 18.7224C105.593 19.1174 105.857 19.4071 106.225 19.4071H109.096C110.239 19.4613 111.318 19.9539 112.107 20.7827C112.897 21.6115 113.337 22.7126 113.335 23.8573V28.9658C113.335 30.1391 112.869 31.2643 112.04 32.0939C111.21 32.9236 110.085 33.3897 108.911 33.3897H106.041C105.872 33.4039 105.71 33.4659 105.575 33.5685C105.44 33.6711 105.337 33.81 105.277 33.969C105.183 34.114 105.133 34.2832 105.133 34.4561C105.133 34.629 105.183 34.7982 105.277 34.9433L107.305 36.9709C107.717 37.3796 108.043 37.8658 108.266 38.4013C108.489 38.9368 108.604 39.5112 108.604 40.0913C108.604 40.6714 108.489 41.2457 108.266 41.7813C108.043 42.3168 107.717 42.8029 107.305 43.2117L103.856 46.7139C103.452 47.1295 102.969 47.4601 102.435 47.6862C101.901 47.9123 101.328 48.0294 100.748 48.0305C99.5724 48.0151 98.4487 47.5429 97.6147 46.7139L95.5871 44.7653C95.442 44.6712 95.2728 44.6212 95.1 44.6212C94.9271 44.6212 94.7579 44.6712 94.6128 44.7653C94.2178 44.9233 93.9282 45.1866 93.9282 45.5553V48.4255C93.874 49.5689 93.3813 50.6474 92.5525 51.437C91.7238 52.2265 90.6226 52.6664 89.478 52.6651ZM85.3438 47.3986H88.6616V45.371C88.6729 44.1566 89.0442 42.973 89.7286 41.9698C90.413 40.9667 91.3796 40.1892 92.5062 39.7358C93.6374 39.2413 94.8902 39.095 96.1048 39.3154C97.3195 39.5358 98.441 40.113 99.3263 40.9734L100.748 42.3954L103.066 40.0781L101.644 38.6298C100.789 37.7579 100.212 36.6516 99.987 35.4514C99.762 34.2511 99.8986 33.0111 100.38 31.8887C100.837 30.7671 101.616 29.8059 102.619 29.1265C103.622 28.447 104.803 28.0796 106.015 28.0705H108.069V24.6736H106.041C104.827 24.6624 103.643 24.2911 102.64 23.6067C101.637 22.9223 100.859 21.9556 100.406 20.829C99.9115 19.6979 99.7652 18.4451 99.9856 17.2304C100.206 16.0157 100.783 14.8942 101.644 14.0089L103.066 12.587L100.748 10.2697L99.3 11.6916C98.4145 12.5005 97.3163 13.0395 96.1348 13.2451C94.9533 13.4508 93.7375 13.3146 92.6308 12.8525C91.5241 12.3905 90.5725 11.6218 89.8879 10.6371C89.2034 9.65232 88.8145 8.49247 88.767 7.29411V5.26651H85.3438V7.29411C85.3325 8.50843 84.9612 9.69211 84.2768 10.6953C83.5924 11.6984 82.6258 12.4759 81.4992 12.9293C80.368 13.4237 79.1152 13.5701 77.9006 13.3496C76.6859 13.1292 75.5644 12.552 74.6791 11.6916L73.2571 10.2697L70.9399 12.587L72.3618 14.0352C73.1707 14.9207 73.7096 16.0189 73.9153 17.2004C74.121 18.382 73.9848 19.5977 73.5227 20.7044C73.0606 21.8111 72.292 22.7628 71.3072 23.4473C70.3225 24.1319 69.1626 24.5208 67.9643 24.5683H65.9367V27.8862H67.9643C69.1786 27.8974 70.3623 28.2687 71.3654 28.9531C72.3686 29.6375 73.1461 30.6041 73.5994 31.7307C74.0939 32.8619 74.2402 34.1147 74.0198 35.3293C73.7994 36.544 73.2222 37.6655 72.3618 38.5508L70.9399 39.9728L73.2571 42.29L74.7054 40.8681C75.5909 40.0593 76.6891 39.5203 77.8706 39.3146C79.0521 39.1089 80.2678 39.2451 81.3746 39.7072C82.4813 40.1693 83.4329 40.9379 84.1175 41.9227C84.802 42.9074 85.1909 44.0673 85.2384 45.2656L85.3438 47.3986Z" fill="#101B79"/>
<path d="M87.0042 35.5421C85.1814 35.5421 83.3995 35.0016 81.8839 33.9889C80.3683 32.9762 79.187 31.5368 78.4894 29.8527C77.7918 28.1686 77.6093 26.3155 77.9649 24.5277C78.3206 22.7399 79.1983 21.0977 80.4873 19.8088C81.7762 18.5199 83.4184 17.6421 85.2062 17.2865C86.994 16.9309 88.8471 17.1134 90.5312 17.8109C92.2153 18.5085 93.6547 19.6898 94.6674 21.2054C95.6801 22.721 96.2206 24.5029 96.2206 26.3258C96.2206 28.7701 95.2496 31.1143 93.5212 32.8427C91.7928 34.5711 89.4486 35.5421 87.0042 35.5421ZM87.0042 22.3759C86.223 22.3759 85.4594 22.6075 84.8098 23.0416C84.1602 23.4756 83.654 24.0925 83.355 24.8142C83.0561 25.536 82.9778 26.3301 83.1302 27.0963C83.2827 27.8626 83.6588 28.5664 84.2112 29.1188C84.7636 29.6712 85.4674 30.0473 86.2336 30.1997C86.9998 30.3522 87.794 30.2739 88.5158 29.975C89.2375 29.676 89.8544 29.1698 90.2884 28.5202C90.7225 27.8706 90.9541 27.107 90.9541 26.3258C90.9541 25.2782 90.538 24.2735 89.7972 23.5328C89.0565 22.792 88.0518 22.3759 87.0042 22.3759Z" fill="#101B79"/>
<defs>
<filter id="filter0_i_608_436" x="0" y="46.7666" width="129.501" height="56.2334" filterUnits="userSpaceOnUse" color-interpolation-filters="sRGB">
<feFlood flood-opacity="0" result="BackgroundImageFix"/>
<feBlend mode="normal" in="SourceGraphic" in2="BackgroundImageFix" result="shape"/>
<feColorMatrix in="SourceAlpha" type="matrix" values="0 0 0 0 0 0 0 0 0 0 0 0 0 0 0 0 0 0 127 0" result="hardAlpha"/>
<feOffset dy="4"/>
<feGaussianBlur stdDeviation="2"/>
<feComposite in2="hardAlpha" operator="arithmetic" k2="-1" k3="1"/>
<feColorMatrix type="matrix" values="0 0 0 0 0 0 0 0 0 0 0 0 0 0 0 0 0 0 0.25 0"/>
<feBlend mode="normal" in2="shape" result="effect1_innerShadow_608_436"/>
</filter>
</defs>
</svg>
