<svg width="90" height="90" viewBox="0 0 90 90" fill="none" xmlns="http://www.w3.org/2000/svg">
<path d="M73.125 39.375H36.5625V60.5775H32.6682V53.3705C32.6637 49.2871 31.0396 45.3723 28.1523 42.4849C25.265 39.5975 21.3502 37.9733 17.2668 37.9687H8.4375V26.7187H2.8125V87.1875H8.4375V78.7951L81.5625 79.3801V87.1875H87.1875V53.4375C87.1833 49.7092 85.7003 46.1348 83.064 43.4985C80.4277 40.8621 76.8533 39.3792 73.125 39.375V39.375ZM8.4375 43.5937H17.2668C19.8588 43.5967 22.3438 44.6276 24.1766 46.4604C26.0094 48.2932 27.0403 50.7782 27.0432 53.3701V60.5772H8.4375V43.5937ZM81.5625 73.755L8.4375 73.17V66.2025H81.5625V73.755ZM81.5625 60.5775H42.1875V45H73.125C75.362 45.0025 77.5066 45.8923 79.0884 47.4741C80.6702 49.0559 81.5599 51.2005 81.5625 53.4375V60.5775Z" fill="#101B79"/>
</svg>
