<svg width="22" height="22" viewBox="0 0 22 22" fill="none" xmlns="http://www.w3.org/2000/svg">
<path d="M21.2018 10.5047L18.2268 19.7169C18.0353 20.0725 17.7617 20.3769 17.4061 20.6299C17.0505 20.883 16.6538 21.0163 16.2161 21.03C15.8331 21.0163 15.4501 20.8761 15.0672 20.6094C14.6842 20.3427 14.4243 20.0452 14.2875 19.7169L11.3125 10.5047C10.9979 9.71141 10.933 9.07539 11.1176 8.59665C11.3023 8.11792 11.6408 7.87856 12.1332 7.87856H20.3811C20.8735 7.87856 21.212 8.11792 21.3967 8.59665C21.5813 9.07539 21.5163 9.71141 21.2018 10.5047ZM16.1546 21.03H16.2777H16.1546ZM12.3179 3.93928C12.3179 2.84503 12.7043 1.91493 13.4771 1.14896C14.2499 0.382985 15.18 0 16.2674 0C17.3548 0 18.2815 0.382985 19.0475 1.14896C19.8134 1.91493 20.1964 2.84503 20.1964 3.93928C20.1964 5.03352 19.8134 5.96363 19.0475 6.7296C18.2815 7.49557 17.3548 7.87856 16.2674 7.87856C15.18 7.87856 14.2499 7.49557 13.4771 6.7296C12.7043 5.96363 12.3179 5.03352 12.3179 3.93928ZM9.87635 21.03H1.60798C1.12924 21.03 0.797552 20.7906 0.612899 20.3119C0.428245 19.8332 0.486377 19.1971 0.787294 18.4038L4.39829 7.63235C3.63232 7.34511 3.00655 6.86638 2.52098 6.19616C2.03541 5.52593 1.79263 4.77364 1.79263 3.93928C1.79263 2.84503 2.17903 1.91493 2.95184 1.14896C3.72465 0.382985 4.65476 0 5.74216 0C6.82956 0 7.75967 0.382985 8.53248 1.14896C9.30529 1.91493 9.69169 2.84503 9.69169 3.93928C9.69169 4.78732 9.44207 5.54987 8.94282 6.22693C8.44357 6.904 7.80412 7.37931 7.02448 7.65287L10.697 18.4038C11.0116 19.1971 11.0732 19.8332 10.8817 20.3119C10.6902 20.7906 10.3551 21.03 9.87635 21.03Z" fill="#808080"/>
</svg>
