<svg width="176" height="170" viewBox="0 0 176 170" fill="none" xmlns="http://www.w3.org/2000/svg">
<path d="M43.0571 48.2697L43.3683 28.9746C43.386 27.8827 44.2761 27.0068 45.3681 27.0068H54.3996C55.5168 27.0068 56.4174 27.922 56.3994 29.0391L56.0892 48.2697" stroke="#101B79" stroke-width="5" stroke-linecap="round"/>
<path d="M36.1982 22.5479V45.269C36.1982 46.9259 37.5414 48.269 39.1982 48.269H60.0272C61.6529 48.269 62.9828 46.9741 63.0261 45.349L63.6341 22.5479" stroke="#101B79" stroke-width="5" stroke-linecap="round"/>
<path d="M27.9675 29.4068L50.6021 9.17285L71.865 29.4068" stroke="#101B79" stroke-width="5" stroke-linecap="round"/>
<path d="M50.9451 8.70572C71.522 -9.47059 121.935 16.9365 50.9451 71.4653" stroke="#101B79" stroke-width="5" stroke-linecap="round"/>
<path d="M50.6021 8.71609C30.0245 -9.49325 -20.3906 16.9618 50.6021 71.5897" stroke="#101B79" stroke-width="5" stroke-linecap="round"/>
<circle cx="52.5127" cy="37.2946" r="1.37179" fill="#151515"/>
<path d="M116.438 77.396C121.757 81.0542 158.029 93.1308 175.5 98.7118V131.846C159.965 124.46 126.711 108.533 117.978 103.918C112.855 101.211 101.479 103.132 90.4525 106.191C77.2539 109.853 62.5364 109.686 48.8392 109.686C47.0356 109.686 42.5412 107.857 39.6021 107.998C37.2508 108.11 33.7239 107.388 32.2543 107.013C22.2334 103.411 11.6574 104.293 7.62197 105.184H1.67381C-3.96562 99.3145 12.4738 96.354 13.8377 96.1824C13.2656 96.1128 10.7159 94.6792 9.44142 93.9281C6.41835 88.863 13.4535 88.6754 17.349 89.2147L24.9066 91.1845C27.5292 86.7904 37.9491 90.3301 44.0403 93.1894C45.0426 93.6599 46.1276 93.9281 47.2348 93.9281H51.899C52.8806 93.9281 53.8512 93.7217 54.7478 93.3222L55.6173 92.9348C56.5845 92.5038 56.3062 91.062 55.2481 91.022L50.2388 90.8327C48.0461 90.6686 43.8848 89.271 44.7805 84.9938C45.6762 80.7165 55.1373 79.5534 59.7558 79.5065C67.9853 80.407 76.5273 76.9739 79.7696 75.1449C101.393 68.1803 109.79 72.8233 116.438 77.396Z" fill="#101B79"/>
<path d="M40.7202 138.721V143.071L38.8702 143.296C38.4869 142.962 38.1786 142.346 37.9452 141.446H34.0452V145.996H37.5202C37.7202 145.496 37.9286 145.146 38.1452 144.946L39.7202 145.121V149.571L38.1452 149.771C37.9286 149.604 37.7202 149.254 37.5202 148.721H34.0452V152.871C35.1619 153.121 35.9702 153.462 36.4702 153.896L36.2202 155.971H29.3202L29.0702 153.896C29.2869 153.612 29.7452 153.337 30.4452 153.071V141.646C29.7619 141.396 29.3036 141.112 29.0702 140.796L29.3202 138.721H40.7202ZM44.8062 143.471C45.7395 143.254 46.6062 143.146 47.4062 143.146C48.2062 143.146 48.8812 143.171 49.4312 143.221V153.196C50.0812 153.446 50.5395 153.729 50.8062 154.046L50.5562 155.971H44.8062L44.5562 154.046C44.7895 153.729 45.2479 153.446 45.9312 153.196V146.246C45.3479 146.046 44.8895 145.762 44.5562 145.396L44.8062 143.471ZM47.6312 141.746C46.2479 141.746 45.5562 141.121 45.5562 139.871C45.5562 138.604 46.2479 137.971 47.6312 137.971C49.0312 137.971 49.7312 138.604 49.7312 139.871C49.7312 141.121 49.0312 141.746 47.6312 141.746ZM54.556 143.471C55.4727 143.271 56.2977 143.171 57.031 143.171C57.7643 143.171 58.3727 143.187 58.856 143.221V144.471C59.2727 144.121 59.8227 143.837 60.506 143.621C61.206 143.387 61.8727 143.271 62.506 143.271C64.1393 143.271 65.281 143.654 65.931 144.421C66.5977 145.187 66.931 146.512 66.931 148.396V153.196C67.581 153.446 68.0393 153.729 68.306 154.046L68.056 155.971H62.306L62.056 154.046C62.2893 153.729 62.7477 153.446 63.431 153.196V148.246C63.431 147.346 63.281 146.746 62.981 146.446C62.6977 146.129 62.181 145.971 61.431 145.971C60.681 145.971 59.931 146.237 59.181 146.771V153.196C59.831 153.446 60.2893 153.729 60.556 154.046L60.306 155.971H54.556L54.306 154.046C54.5393 153.729 54.9977 153.446 55.681 153.196V146.246C55.0977 146.046 54.6393 145.762 54.306 145.396L54.556 143.471ZM78.1742 138.221C79.1242 138.004 80.0325 137.896 80.8992 137.896C81.7658 137.896 82.5075 137.921 83.1242 137.971V152.971C83.6242 153.054 84.0825 153.196 84.4992 153.396V155.371C83.4992 155.904 82.2325 156.171 80.6992 156.171C80.5325 156.087 80.3658 155.937 80.1992 155.721C80.0492 155.504 79.9658 155.296 79.9492 155.096C79.5825 155.396 79.1075 155.654 78.5242 155.871C77.9408 156.071 77.3658 156.171 76.7992 156.171C74.9992 156.171 73.6908 155.687 72.8742 154.721C72.0742 153.737 71.6742 152.137 71.6742 149.921C71.6742 147.404 72.2908 145.637 73.5242 144.621C74.6075 143.721 75.9408 143.271 77.5242 143.271C78.2242 143.271 78.9242 143.354 79.6242 143.521V141.046C78.8575 140.829 78.2908 140.529 77.9242 140.146L78.1742 138.221ZM77.3242 153.621C78.2742 153.621 79.0408 153.337 79.6242 152.771V146.071C78.9408 145.904 78.2158 145.821 77.4492 145.821C76.6825 145.821 76.1242 146.162 75.7742 146.846C75.4408 147.512 75.2742 148.521 75.2742 149.871C75.2742 151.204 75.4408 152.162 75.7742 152.746C76.1075 153.329 76.6242 153.621 77.3242 153.621ZM94.1163 138.721C96.083 138.721 97.508 138.846 98.3913 139.096C99.2913 139.329 99.933 139.612 100.316 139.946C101.166 140.679 101.591 141.804 101.591 143.321C101.591 144.454 100.983 145.529 99.7663 146.546C101.316 147.329 102.091 148.787 102.091 150.921C102.091 152.587 101.541 153.829 100.441 154.646C99.358 155.446 97.733 155.887 95.5663 155.971H88.4413L88.1913 153.896C88.408 153.612 88.8663 153.337 89.5663 153.071V141.646C88.883 141.396 88.4247 141.112 88.1913 140.796L88.4413 138.721H94.1163ZM95.3913 148.496H93.1663V153.246H94.8913C96.0247 153.246 96.883 153.079 97.4663 152.746C98.0497 152.412 98.3413 151.812 98.3413 150.946C98.3413 150.079 98.108 149.454 97.6413 149.071C97.1913 148.687 96.4413 148.496 95.3913 148.496ZM94.4663 141.446H93.1663V145.771H95.2163C96.0663 145.771 96.7163 145.554 97.1663 145.121C97.6163 144.687 97.8413 144.162 97.8413 143.546C97.8413 142.912 97.683 142.437 97.3663 142.121C97.0497 141.804 96.683 141.612 96.2663 141.546C95.8497 141.479 95.2497 141.446 94.4663 141.446ZM111.971 156.171C109.971 156.171 108.463 155.637 107.446 154.571C106.446 153.504 105.946 151.954 105.946 149.921C105.946 148.687 106.121 147.629 106.471 146.746C106.821 145.846 107.296 145.154 107.896 144.671C109.063 143.737 110.421 143.271 111.971 143.271C113.521 143.271 114.704 143.671 115.521 144.471C116.354 145.254 116.771 146.671 116.771 148.721C116.771 149.921 116.179 150.521 114.996 150.521H109.571C109.638 151.571 109.904 152.312 110.371 152.746C110.854 153.179 111.613 153.396 112.646 153.396C113.213 153.396 113.754 153.329 114.271 153.196C114.788 153.062 115.163 152.929 115.396 152.796L115.746 152.596L116.496 154.596C116.396 154.712 116.246 154.862 116.046 155.046C115.863 155.212 115.379 155.446 114.596 155.746C113.829 156.029 112.954 156.171 111.971 156.171ZM113.546 148.296C113.579 148.062 113.596 147.779 113.596 147.446C113.596 147.112 113.463 146.762 113.196 146.396C112.929 146.012 112.463 145.821 111.796 145.821C111.146 145.821 110.646 146.021 110.296 146.421C109.946 146.821 109.713 147.496 109.596 148.446L113.546 148.296ZM127.056 138.221C128.006 138.004 128.914 137.896 129.781 137.896C130.648 137.896 131.389 137.921 132.006 137.971V152.971C132.506 153.054 132.964 153.196 133.381 153.396V155.371C132.381 155.904 131.114 156.171 129.581 156.171C129.414 156.087 129.248 155.937 129.081 155.721C128.931 155.504 128.848 155.296 128.831 155.096C128.464 155.396 127.989 155.654 127.406 155.871C126.823 156.071 126.248 156.171 125.681 156.171C123.881 156.171 122.573 155.687 121.756 154.721C120.956 153.737 120.556 152.137 120.556 149.921C120.556 147.404 121.173 145.637 122.406 144.621C123.489 143.721 124.823 143.271 126.406 143.271C127.106 143.271 127.806 143.354 128.506 143.521V141.046C127.739 140.829 127.173 140.529 126.806 140.146L127.056 138.221ZM126.206 153.621C127.156 153.621 127.923 153.337 128.506 152.771V146.071C127.823 145.904 127.098 145.821 126.331 145.821C125.564 145.821 125.006 146.162 124.656 146.846C124.323 147.512 124.156 148.521 124.156 149.871C124.156 151.204 124.323 152.162 124.656 152.746C124.989 153.329 125.506 153.621 126.206 153.621ZM137.323 147.021C137.14 146.187 137.048 145.471 137.048 144.871C137.048 144.254 137.057 143.787 137.073 143.471H147.198L147.448 145.571L142.573 151.796C142.123 152.396 141.632 152.912 141.098 153.346L141.223 153.621C141.707 153.471 142.382 153.396 143.248 153.396H144.623C144.873 152.796 145.148 152.354 145.448 152.071L147.373 152.321C147.557 153.154 147.648 153.887 147.648 154.521C147.648 155.154 147.64 155.637 147.623 155.971H137.048L136.798 153.921L141.698 147.621C142.148 147.021 142.64 146.504 143.173 146.071L143.048 145.796C142.565 145.946 141.89 146.021 141.023 146.021H140.048C139.798 146.587 139.532 147.004 139.248 147.271L137.323 147.021Z" fill="#101B79"/>
</svg>
